<svg viewBox="-16 -32 880 192" width="880" height="192" xmlns="http://www.w3.org/2000/svg"><desc>Generated with https://github.com/Platane/snk</desc><style>@keyframes c0{95.81%{fill:var(--c4)}95.83%,to{fill:var(--ce)}}@keyframes c1{63.27%{fill:var(--c2)}63.29%,to{fill:var(--ce)}}@keyframes c2{96.41%{fill:var(--c4)}96.43%,to{fill:var(--ce)}}@keyframes c3{64.77%{fill:var(--c3)}64.79%,to{fill:var(--ce)}}@keyframes c4{56.71%{fill:var(--c2)}56.73%,to{fill:var(--ce)}}@keyframes c5{39.69%{fill:var(--c2)}39.71%,to{fill:var(--ce)}}@keyframes c6{11.33%{fill:var(--c1)}11.35%,to{fill:var(--ce)}}@keyframes c7{72.53%{fill:var(--c3)}72.55%,to{fill:var(--ce)}}@keyframes c8{12.53%{fill:var(--c1)}12.55%,to{fill:var(--ce)}}@keyframes c9{18.8%{fill:var(--c1)}18.82%,to{fill:var(--ce)}}@keyframes ca{42.08%{fill:var(--c2)}42.1%,to{fill:var(--ce)}}@keyframes cb{41.48%{fill:var(--c2)}41.5%,to{fill:var(--ce)}}@keyframes cc{17.9%{fill:var(--c1)}17.92%,to{fill:var(--ce)}}@keyframes cd{12.83%{fill:var(--c1)}12.85%,to{fill:var(--ce)}}@keyframes ce{14.02%{fill:var(--c1)}14.04%,to{fill:var(--ce)}}@keyframes cf{13.72%{fill:var(--c1)}13.74%,to{fill:var(--ce)}}@keyframes cg{13.42%{fill:var(--c1)}13.44%,to{fill:var(--ce)}}@keyframes ch{13.12%{fill:var(--c1)}13.14%,to{fill:var(--ce)}}@keyframes ci{74.92%{fill:var(--c3)}74.94%,to{fill:var(--ce)}}@keyframes cj{38.8%{fill:var(--c2)}38.82%,to{fill:var(--ce)}}@keyframes ck{14.62%{fill:var(--c1)}14.64%,to{fill:var(--ce)}}@keyframes cl{14.32%{fill:var(--c1)}14.34%,to{fill:var(--ce)}}@keyframes cm{73.72%{fill:var(--c3)}73.74%,to{fill:var(--ce)}}@keyframes cn{38.2%{fill:var(--c2)}38.22%,to{fill:var(--ce)}}@keyframes co{43.27%{fill:var(--c2)}43.29%,to{fill:var(--ce)}}@keyframes cp{17%{fill:var(--c1)}17.02%,to{fill:var(--ce)}}@keyframes cq{15.21%{fill:var(--c1)}15.23%,to{fill:var(--ce)}}@keyframes cr{86.56%{fill:var(--c4)}86.58%,to{fill:var(--ce)}}@keyframes cs{86.26%{fill:var(--c4)}86.28%,to{fill:var(--ce)}}@keyframes ct{16.71%{fill:var(--c1)}16.73%,to{fill:var(--ce)}}@keyframes cu{37.3%{fill:var(--c2)}37.32%,to{fill:var(--ce)}}@keyframes cv{20.89%{fill:var(--c1)}20.91%,to{fill:var(--ce)}}@keyframes cw{76.11%{fill:var(--c3)}76.13%,to{fill:var(--ce)}}@keyframes cx{15.81%{fill:var(--c1)}15.83%,to{fill:var(--ce)}}@keyframes cy{16.11%{fill:var(--c1)}16.13%,to{fill:var(--ce)}}@keyframes cz{16.41%{fill:var(--c1)}16.43%,to{fill:var(--ce)}}@keyframes c10{37%{fill:var(--c2)}37.02%,to{fill:var(--ce)}}@keyframes c11{27.15%{fill:var(--c1)}27.17%,to{fill:var(--ce)}}@keyframes c12{26.86%{fill:var(--c1)}26.88%,to{fill:var(--ce)}}@keyframes c13{26.56%{fill:var(--c1)}26.58%,to{fill:var(--ce)}}@keyframes c14{77.3%{fill:var(--c3)}77.32%,to{fill:var(--ce)}}@keyframes c15{25.96%{fill:var(--c1)}25.98%,to{fill:var(--ce)}}@keyframes c16{35.81%{fill:var(--c2)}35.83%,to{fill:var(--ce)}}@keyframes c17{22.38%{fill:var(--c1)}22.4%,to{fill:var(--ce)}}@keyframes c18{28.35%{fill:var(--c1)}28.37%,to{fill:var(--ce)}}@keyframes c19{35.51%{fill:var(--c2)}35.53%,to{fill:var(--ce)}}@keyframes c1a{22.68%{fill:var(--c1)}22.7%,to{fill:var(--ce)}}@keyframes c1b{25.06%{fill:var(--c1)}25.08%,to{fill:var(--ce)}}@keyframes c1c{47.15%{fill:var(--c2)}47.17%,to{fill:var(--ce)}}@keyframes c1d{34.92%{fill:var(--c2)}34.94%,to{fill:var(--ce)}}@keyframes c1e{23.27%{fill:var(--c1)}23.29%,to{fill:var(--ce)}}@keyframes c1f{24.17%{fill:var(--c1)}24.19%,to{fill:var(--ce)}}@keyframes c1g{23.57%{fill:var(--c1)}23.59%,to{fill:var(--ce)}}@keyframes c1h{30.14%{fill:var(--c1)}30.16%,to{fill:var(--ce)}}@keyframes c1i{49.24%{fill:var(--c2)}49.26%,to{fill:var(--ce)}}@keyframes c1j{33.42%{fill:var(--c2)}33.44%,to{fill:var(--ce)}}@keyframes c1k{34.02%{fill:var(--c2)}34.04%,to{fill:var(--ce)}}@keyframes c1l{32.53%{fill:var(--c2)}32.55%,to{fill:var(--ce)}}@keyframes c1m{33.12%{fill:var(--c2)}33.14%,to{fill:var(--ce)}}@keyframes c1n{79.99%{fill:var(--c3)}80.01%,to{fill:var(--ce)}}@keyframes c1o{80.29%{fill:var(--c4)}80.31%,to{fill:var(--ce)}}@keyframes c1p{32.23%{fill:var(--c1)}32.25%,to{fill:var(--ce)}}@keyframes c1q{82.08%{fill:var(--c4)}82.1%,to{fill:var(--ce)}}@keyframes u0{11.33%{transform:scale(0,1)}11.35%,12.53%{transform:scale(.03,1)}12.55%,12.83%{transform:scale(.06,1)}12.85%,13.12%{transform:scale(.1,1)}13.14%,13.42%{transform:scale(.13,1)}13.44%,13.72%{transform:scale(.16,1)}13.74%,14.02%{transform:scale(.19,1)}14.04%,14.32%{transform:scale(.23,1)}14.34%,14.62%{transform:scale(.26,1)}14.64%,15.21%{transform:scale(.29,1)}15.23%,15.81%{transform:scale(.32,1)}15.83%,16.11%{transform:scale(.35,1)}16.13%,16.41%{transform:scale(.39,1)}16.43%,16.71%{transform:scale(.42,1)}16.73%,17%{transform:scale(.45,1)}17.02%,17.9%{transform:scale(.48,1)}17.92%,18.8%{transform:scale(.52,1)}18.82%,20.89%{transform:scale(.55,1)}20.91%,22.38%{transform:scale(.58,1)}22.4%,22.68%{transform:scale(.61,1)}22.7%,23.27%{transform:scale(.65,1)}23.29%,23.57%{transform:scale(.68,1)}23.59%,24.17%{transform:scale(.71,1)}24.19%,25.06%{transform:scale(.74,1)}25.08%,25.96%{transform:scale(.77,1)}25.98%,26.56%{transform:scale(.81,1)}26.58%,26.86%{transform:scale(.84,1)}26.88%,27.15%{transform:scale(.87,1)}27.17%,28.35%{transform:scale(.9,1)}28.37%,30.14%{transform:scale(.94,1)}30.16%,32.23%{transform:scale(.97,1)}32.25%,to{transform:scale(1,1)}}@keyframes u1{32.53%{transform:scale(0,1)}32.55%,33.12%{transform:scale(.05,1)}33.14%,33.42%{transform:scale(.11,1)}33.44%,34.02%{transform:scale(.16,1)}34.04%,34.92%{transform:scale(.21,1)}34.94%,35.51%{transform:scale(.26,1)}35.53%,35.81%{transform:scale(.32,1)}35.83%,37%{transform:scale(.37,1)}37.02%,37.3%{transform:scale(.42,1)}37.32%,38.2%{transform:scale(.47,1)}38.22%,38.8%{transform:scale(.53,1)}38.82%,39.69%{transform:scale(.58,1)}39.71%,41.48%{transform:scale(.63,1)}41.5%,42.08%{transform:scale(.68,1)}42.1%,43.27%{transform:scale(.74,1)}43.29%,47.15%{transform:scale(.79,1)}47.17%,49.24%{transform:scale(.84,1)}49.26%,56.71%{transform:scale(.89,1)}56.73%,63.27%{transform:scale(.95,1)}63.29%,to{transform:scale(1,1)}}@keyframes u2{64.77%{transform:scale(0,1)}64.79%,72.53%{transform:scale(.14,1)}72.55%,73.72%{transform:scale(.29,1)}73.74%,74.92%{transform:scale(.43,1)}74.94%,76.11%{transform:scale(.57,1)}76.13%,77.3%{transform:scale(.71,1)}77.32%,79.99%{transform:scale(.86,1)}80.01%,to{transform:scale(1,1)}}@keyframes u3{80.29%{transform:scale(0,1)}80.31%,82.08%{transform:scale(.17,1)}82.1%,86.26%{transform:scale(.33,1)}86.28%,86.56%{transform:scale(.5,1)}86.58%,95.81%{transform:scale(.67,1)}95.83%,96.41%{transform:scale(.83,1)}96.43%,to{transform:scale(1,1)}}@keyframes s0{0%,99.7%{transform:translate(0,-16px)}.3%{transform:translate(0,-32px)}10.15%{transform:translate(528px,-32px)}11.34%{transform:translate(528px,32px)}11.64%{transform:translate(512px,32px)}12.24%{transform:translate(512px,64px)}13.13%{transform:translate(560px,64px)}14.03%{transform:translate(560px,16px)}14.33%,43.58%{transform:translate(576px,16px)}14.63%,43.88%{transform:translate(576px,0)}15.52%{transform:translate(624px,0)}16.42%{transform:translate(624px,48px)}17.91%{transform:translate(544px,48px)}18.21%,19.4%{transform:translate(544px,64px)}18.51%,72.24%{transform:translate(528px,64px)}18.81%{transform:translate(528px,80px)}19.1%,40.6%{transform:translate(544px,80px)}20.3%{transform:translate(592px,64px)}20.6%{transform:translate(592px,80px)}23.58%{transform:translate(752px,80px)}23.88%,49.55%{transform:translate(752px,96px)}24.18%{transform:translate(736px,96px)}24.48%{transform:translate(736px,80px)}24.78%{transform:translate(720px,80px)}25.37%{transform:translate(720px,48px)}26.57%{transform:translate(656px,48px)}27.16%{transform:translate(656px,16px)}28.06%{transform:translate(704px,16px)}28.36%{transform:translate(704px,0)}29.55%{transform:translate(768px,0)}30.15%{transform:translate(768px,32px)}30.45%{transform:translate(752px,32px)}30.75%{transform:translate(752px,16px)}31.94%{transform:translate(816px,16px)}32.24%{transform:translate(816px,0)}32.54%{transform:translate(800px,0)}33.13%{transform:translate(800px,32px)}33.43%{transform:translate(784px,32px)}34.03%{transform:translate(784px,64px)}37.91%{transform:translate(576px,64px)}38.51%{transform:translate(576px,96px)}39.7%{transform:translate(512px,96px)}40%{transform:translate(512px,80px)}42.09%{transform:translate(544px,0)}42.99%{transform:translate(592px,0)}43.28%{transform:translate(592px,16px)}46.87%{transform:translate(736px,0)}47.16%{transform:translate(736px,16px)}47.76%{transform:translate(768px,16px)}49.25%{transform:translate(768px,96px)}50.15%{transform:translate(752px,64px)}56.42%{transform:translate(416px,64px)}56.72%{transform:translate(416px,80px)}57.01%{transform:translate(400px,80px)}58.21%{transform:translate(400px,16px)}63.58%{transform:translate(112px,16px)}64.18%{transform:translate(112px,48px)}64.48%{transform:translate(128px,48px)}64.78%{transform:translate(128px,64px)}72.54%{transform:translate(528px,48px)}73.43%{transform:translate(576px,48px)}73.73%{transform:translate(576px,32px)}74.03%{transform:translate(560px,32px)}74.93%{transform:translate(560px,80px)}75.82%{transform:translate(608px,80px)}76.12%{transform:translate(608px,96px)}79.4%{transform:translate(784px,96px)}79.7%{transform:translate(784px,80px)}80%{transform:translate(800px,80px)}80.3%{transform:translate(800px,96px)}80.9%{transform:translate(832px,96px)}82.09%{transform:translate(832px,32px)}86.27%{transform:translate(608px,32px)}86.87%{transform:translate(608px,0)}95.82%{transform:translate(128px,0)}96.42%{transform:translate(128px,32px)}97.61%{transform:translate(64px,32px)}97.91%{transform:translate(64px,16px)}98.21%{transform:translate(48px,16px)}98.81%{transform:translate(48px,-16px)}}@keyframes s1{0%,99.7%{transform:translate(16px,-16px)}.3%{transform:translate(0,-16px)}.6%{transform:translate(0,-32px)}10.45%{transform:translate(528px,-32px)}11.64%{transform:translate(528px,32px)}11.94%{transform:translate(512px,32px)}12.54%{transform:translate(512px,64px)}13.43%{transform:translate(560px,64px)}14.33%{transform:translate(560px,16px)}14.63%,43.88%{transform:translate(576px,16px)}14.93%,44.18%{transform:translate(576px,0)}15.82%{transform:translate(624px,0)}16.72%{transform:translate(624px,48px)}18.21%{transform:translate(544px,48px)}18.51%,19.7%{transform:translate(544px,64px)}18.81%,72.54%{transform:translate(528px,64px)}19.1%{transform:translate(528px,80px)}19.4%,40.9%{transform:translate(544px,80px)}20.6%{transform:translate(592px,64px)}20.9%{transform:translate(592px,80px)}23.88%{transform:translate(752px,80px)}24.18%,49.85%{transform:translate(752px,96px)}24.48%{transform:translate(736px,96px)}24.78%{transform:translate(736px,80px)}25.07%{transform:translate(720px,80px)}25.67%{transform:translate(720px,48px)}26.87%{transform:translate(656px,48px)}27.46%{transform:translate(656px,16px)}28.36%{transform:translate(704px,16px)}28.66%{transform:translate(704px,0)}29.85%{transform:translate(768px,0)}30.45%{transform:translate(768px,32px)}30.75%{transform:translate(752px,32px)}31.04%{transform:translate(752px,16px)}32.24%{transform:translate(816px,16px)}32.54%{transform:translate(816px,0)}32.84%{transform:translate(800px,0)}33.43%{transform:translate(800px,32px)}33.73%{transform:translate(784px,32px)}34.33%{transform:translate(784px,64px)}38.21%{transform:translate(576px,64px)}38.81%{transform:translate(576px,96px)}40%{transform:translate(512px,96px)}40.3%{transform:translate(512px,80px)}42.39%{transform:translate(544px,0)}43.28%{transform:translate(592px,0)}43.58%{transform:translate(592px,16px)}47.16%{transform:translate(736px,0)}47.46%{transform:translate(736px,16px)}48.06%{transform:translate(768px,16px)}49.55%{transform:translate(768px,96px)}50.45%{transform:translate(752px,64px)}56.72%{transform:translate(416px,64px)}57.01%{transform:translate(416px,80px)}57.31%{transform:translate(400px,80px)}58.51%{transform:translate(400px,16px)}63.88%{transform:translate(112px,16px)}64.48%{transform:translate(112px,48px)}64.78%{transform:translate(128px,48px)}65.07%{transform:translate(128px,64px)}72.84%{transform:translate(528px,48px)}73.73%{transform:translate(576px,48px)}74.03%{transform:translate(576px,32px)}74.33%{transform:translate(560px,32px)}75.22%{transform:translate(560px,80px)}76.12%{transform:translate(608px,80px)}76.42%{transform:translate(608px,96px)}79.7%{transform:translate(784px,96px)}80%{transform:translate(784px,80px)}80.3%{transform:translate(800px,80px)}80.6%{transform:translate(800px,96px)}81.19%{transform:translate(832px,96px)}82.39%{transform:translate(832px,32px)}86.57%{transform:translate(608px,32px)}87.16%{transform:translate(608px,0)}96.12%{transform:translate(128px,0)}96.72%{transform:translate(128px,32px)}97.91%{transform:translate(64px,32px)}98.21%{transform:translate(64px,16px)}98.51%{transform:translate(48px,16px)}99.1%{transform:translate(48px,-16px)}}@keyframes s2{0%,99.7%{transform:translate(32px,-16px)}.6%{transform:translate(0,-16px)}.9%{transform:translate(0,-32px)}10.75%{transform:translate(528px,-32px)}11.94%{transform:translate(528px,32px)}12.24%{transform:translate(512px,32px)}12.84%{transform:translate(512px,64px)}13.73%{transform:translate(560px,64px)}14.63%{transform:translate(560px,16px)}14.93%,44.18%{transform:translate(576px,16px)}15.22%,44.48%{transform:translate(576px,0)}16.12%{transform:translate(624px,0)}17.01%{transform:translate(624px,48px)}18.51%{transform:translate(544px,48px)}18.81%,20%{transform:translate(544px,64px)}19.1%,72.84%{transform:translate(528px,64px)}19.4%{transform:translate(528px,80px)}19.7%,41.19%{transform:translate(544px,80px)}20.9%{transform:translate(592px,64px)}21.19%{transform:translate(592px,80px)}24.18%{transform:translate(752px,80px)}24.48%,50.15%{transform:translate(752px,96px)}24.78%{transform:translate(736px,96px)}25.07%{transform:translate(736px,80px)}25.37%{transform:translate(720px,80px)}25.97%{transform:translate(720px,48px)}27.16%{transform:translate(656px,48px)}27.76%{transform:translate(656px,16px)}28.66%{transform:translate(704px,16px)}28.96%{transform:translate(704px,0)}30.15%{transform:translate(768px,0)}30.75%{transform:translate(768px,32px)}31.04%{transform:translate(752px,32px)}31.34%{transform:translate(752px,16px)}32.54%{transform:translate(816px,16px)}32.84%{transform:translate(816px,0)}33.13%{transform:translate(800px,0)}33.73%{transform:translate(800px,32px)}34.03%{transform:translate(784px,32px)}34.63%{transform:translate(784px,64px)}38.51%{transform:translate(576px,64px)}39.1%{transform:translate(576px,96px)}40.3%{transform:translate(512px,96px)}40.6%{transform:translate(512px,80px)}42.69%{transform:translate(544px,0)}43.58%{transform:translate(592px,0)}43.88%{transform:translate(592px,16px)}47.46%{transform:translate(736px,0)}47.76%{transform:translate(736px,16px)}48.36%{transform:translate(768px,16px)}49.85%{transform:translate(768px,96px)}50.75%{transform:translate(752px,64px)}57.01%{transform:translate(416px,64px)}57.31%{transform:translate(416px,80px)}57.61%{transform:translate(400px,80px)}58.81%{transform:translate(400px,16px)}64.18%{transform:translate(112px,16px)}64.78%{transform:translate(112px,48px)}65.07%{transform:translate(128px,48px)}65.37%{transform:translate(128px,64px)}73.13%{transform:translate(528px,48px)}74.03%{transform:translate(576px,48px)}74.33%{transform:translate(576px,32px)}74.63%{transform:translate(560px,32px)}75.52%{transform:translate(560px,80px)}76.42%{transform:translate(608px,80px)}76.72%{transform:translate(608px,96px)}80%{transform:translate(784px,96px)}80.3%{transform:translate(784px,80px)}80.6%{transform:translate(800px,80px)}80.9%{transform:translate(800px,96px)}81.49%{transform:translate(832px,96px)}82.69%{transform:translate(832px,32px)}86.87%{transform:translate(608px,32px)}87.46%{transform:translate(608px,0)}96.42%{transform:translate(128px,0)}97.01%{transform:translate(128px,32px)}98.21%{transform:translate(64px,32px)}98.51%{transform:translate(64px,16px)}98.81%{transform:translate(48px,16px)}99.4%{transform:translate(48px,-16px)}}@keyframes s3{0%,99.7%{transform:translate(48px,-16px)}.9%{transform:translate(0,-16px)}1.19%{transform:translate(0,-32px)}11.04%{transform:translate(528px,-32px)}12.24%{transform:translate(528px,32px)}12.54%{transform:translate(512px,32px)}13.13%{transform:translate(512px,64px)}14.03%{transform:translate(560px,64px)}14.93%{transform:translate(560px,16px)}15.22%,44.48%{transform:translate(576px,16px)}15.52%,44.78%{transform:translate(576px,0)}16.42%{transform:translate(624px,0)}17.31%{transform:translate(624px,48px)}18.81%{transform:translate(544px,48px)}19.1%,20.3%{transform:translate(544px,64px)}19.4%,73.13%{transform:translate(528px,64px)}19.7%{transform:translate(528px,80px)}20%,41.49%{transform:translate(544px,80px)}21.19%{transform:translate(592px,64px)}21.49%{transform:translate(592px,80px)}24.48%{transform:translate(752px,80px)}24.78%,50.45%{transform:translate(752px,96px)}25.07%{transform:translate(736px,96px)}25.37%{transform:translate(736px,80px)}25.67%{transform:translate(720px,80px)}26.27%{transform:translate(720px,48px)}27.46%{transform:translate(656px,48px)}28.06%{transform:translate(656px,16px)}28.96%{transform:translate(704px,16px)}29.25%{transform:translate(704px,0)}30.45%{transform:translate(768px,0)}31.04%{transform:translate(768px,32px)}31.34%{transform:translate(752px,32px)}31.64%{transform:translate(752px,16px)}32.84%{transform:translate(816px,16px)}33.13%{transform:translate(816px,0)}33.43%{transform:translate(800px,0)}34.03%{transform:translate(800px,32px)}34.33%{transform:translate(784px,32px)}34.93%{transform:translate(784px,64px)}38.81%{transform:translate(576px,64px)}39.4%{transform:translate(576px,96px)}40.6%{transform:translate(512px,96px)}40.9%{transform:translate(512px,80px)}42.99%{transform:translate(544px,0)}43.88%{transform:translate(592px,0)}44.18%{transform:translate(592px,16px)}47.76%{transform:translate(736px,0)}48.06%{transform:translate(736px,16px)}48.66%{transform:translate(768px,16px)}50.15%{transform:translate(768px,96px)}51.04%{transform:translate(752px,64px)}57.31%{transform:translate(416px,64px)}57.61%{transform:translate(416px,80px)}57.91%{transform:translate(400px,80px)}59.1%{transform:translate(400px,16px)}64.48%{transform:translate(112px,16px)}65.07%{transform:translate(112px,48px)}65.37%{transform:translate(128px,48px)}65.67%{transform:translate(128px,64px)}73.43%{transform:translate(528px,48px)}74.33%{transform:translate(576px,48px)}74.63%{transform:translate(576px,32px)}74.93%{transform:translate(560px,32px)}75.82%{transform:translate(560px,80px)}76.72%{transform:translate(608px,80px)}77.01%{transform:translate(608px,96px)}80.3%{transform:translate(784px,96px)}80.6%{transform:translate(784px,80px)}80.9%{transform:translate(800px,80px)}81.19%{transform:translate(800px,96px)}81.79%{transform:translate(832px,96px)}82.99%{transform:translate(832px,32px)}87.16%{transform:translate(608px,32px)}87.76%{transform:translate(608px,0)}96.72%{transform:translate(128px,0)}97.31%{transform:translate(128px,32px)}98.51%{transform:translate(64px,32px)}98.81%{transform:translate(64px,16px)}99.1%{transform:translate(48px,16px)}}:root{--cb:#1b1f230a;--cs:purple;--ce:#ebedf0;--c0:#ebedf0;--c1:#9be9a8;--c2:#40c463;--c3:#30a14e;--c4:#216e39}.c{shape-rendering:geometricPrecision;fill:var(--ce);stroke-width:1px;stroke:var(--cb);animation:none 33500ms linear infinite}.c.c0{fill:var(--c4);animation-name:c0}.c.c1{fill:var(--c2);animation-name:c1}.c.c2{fill:var(--c4);animation-name:c2}.c.c3{fill:var(--c3);animation-name:c3}.c.c4,.c.c5{fill:var(--c2);animation-name:c4}.c.c5{animation-name:c5}.c.c6{fill:var(--c1);animation-name:c6}.c.c7{fill:var(--c3);animation-name:c7}.c.c8,.c.c9{fill:var(--c1);animation-name:c8}.c.c9{animation-name:c9}.c.ca,.c.cb{fill:var(--c2);animation-name:ca}.c.cb{animation-name:cb}.c.cc,.c.cd,.c.ce{fill:var(--c1);animation-name:cc}.c.cd,.c.ce{animation-name:cd}.c.ce{animation-name:ce}.c.cf,.c.cg,.c.ch{fill:var(--c1);animation-name:cf}.c.cg,.c.ch{animation-name:cg}.c.ch{animation-name:ch}.c.ci{fill:var(--c3);animation-name:ci}.c.cj{fill:var(--c2);animation-name:cj}.c.ck,.c.cl{fill:var(--c1);animation-name:ck}.c.cl{animation-name:cl}.c.cm{fill:var(--c3);animation-name:cm}.c.cn,.c.co{fill:var(--c2);animation-name:cn}.c.co{animation-name:co}.c.cp,.c.cq{fill:var(--c1);animation-name:cp}.c.cq{animation-name:cq}.c.cr,.c.cs{fill:var(--c4);animation-name:cr}.c.cs{animation-name:cs}.c.ct{fill:var(--c1);animation-name:ct}.c.cu{fill:var(--c2);animation-name:cu}.c.cv{fill:var(--c1);animation-name:cv}.c.cw{fill:var(--c3);animation-name:cw}.c.cx,.c.cy,.c.cz{fill:var(--c1);animation-name:cx}.c.cy,.c.cz{animation-name:cy}.c.cz{animation-name:cz}.c.c10{fill:var(--c2);animation-name:c10}.c.c11,.c.c12,.c.c13{fill:var(--c1);animation-name:c11}.c.c12,.c.c13{animation-name:c12}.c.c13{animation-name:c13}.c.c14{fill:var(--c3);animation-name:c14}.c.c15{fill:var(--c1);animation-name:c15}.c.c16{fill:var(--c2);animation-name:c16}.c.c17,.c.c18{fill:var(--c1);animation-name:c17}.c.c18{animation-name:c18}.c.c19{fill:var(--c2);animation-name:c19}.c.c1a,.c.c1b{fill:var(--c1);animation-name:c1a}.c.c1b{animation-name:c1b}.c.c1c,.c.c1d{fill:var(--c2);animation-name:c1c}.c.c1d{animation-name:c1d}.c.c1e{fill:var(--c1);animation-name:c1e}.c.c1f,.c.c1g,.c.c1h{fill:var(--c1);animation-name:c1f}.c.c1g,.c.c1h{animation-name:c1g}.c.c1h{animation-name:c1h}.c.c1i,.c.c1j{fill:var(--c2);animation-name:c1i}.c.c1j{animation-name:c1j}.c.c1k,.c.c1l,.c.c1m{fill:var(--c2);animation-name:c1k}.c.c1l,.c.c1m{animation-name:c1l}.c.c1m{animation-name:c1m}.c.c1n{fill:var(--c3);animation-name:c1n}.c.c1o{fill:var(--c4);animation-name:c1o}.c.c1p{fill:var(--c1);animation-name:c1p}.c.c1q{fill:var(--c4);animation-name:c1q}.s,.u{animation:none linear 33500ms infinite}.u,.u.u0{transform-origin:0 0}.u{transform:scale(0,1)}.u.u0{fill:var(--c1);animation-name:u0}.u.u1{fill:var(--c2);animation-name:u1;transform-origin:417.3px 0}.u.u2{fill:var(--c3);animation-name:u2;transform-origin:673px 0}.u.u3{fill:var(--c4);animation-name:u3;transform-origin:767.2px 0}.s{shape-rendering:geometricPrecision;fill:var(--cs)}.s.s0{transform:translate(0,-16px);animation-name:s0}.s.s1{transform:translate(16px,-16px);animation-name:s1}.s.s2{transform:translate(32px,-16px);animation-name:s2}.s.s3{transform:translate(48px,-16px);animation-name:s3}</style><rect class="c" x="2" y="2" rx="2" ry="2" width="12" height="12"/><rect class="c" x="2" y="18" rx="2" ry="2" width="12" height="12"/><rect class="c" x="2" y="34" rx="2" ry="2" width="12" height="12"/><rect class="c" x="2" y="50" rx="2" ry="2" width="12" height="12"/><rect class="c" x="2" y="66" rx="2" ry="2" width="12" height="12"/><rect class="c" x="2" y="82" rx="2" ry="2" width="12" height="12"/><rect class="c" x="2" y="98" rx="2" ry="2" width="12" height="12"/><rect class="c" x="18" y="2" rx="2" ry="2" width="12" height="12"/><rect class="c" x="18" y="18" rx="2" ry="2" width="12" height="12"/><rect class="c" x="18" y="34" rx="2" ry="2" width="12" height="12"/><rect class="c" x="18" y="50" rx="2" ry="2" width="12" height="12"/><rect class="c" x="18" y="66" rx="2" ry="2" width="12" height="12"/><rect class="c" x="18" y="82" rx="2" ry="2" width="12" height="12"/><rect class="c" x="18" y="98" rx="2" ry="2" width="12" height="12"/><rect class="c" x="34" y="2" rx="2" ry="2" width="12" height="12"/><rect class="c" x="34" y="18" rx="2" ry="2" width="12" height="12"/><rect class="c" x="34" y="34" rx="2" ry="2" width="12" height="12"/><rect class="c" x="34" y="50" rx="2" ry="2" width="12" height="12"/><rect class="c" x="34" y="66" rx="2" ry="2" width="12" height="12"/><rect class="c" x="34" y="82" rx="2" ry="2" width="12" height="12"/><rect class="c" x="34" y="98" rx="2" ry="2" width="12" height="12"/><rect class="c" x="50" y="2" rx="2" ry="2" width="12" height="12"/><rect class="c" x="50" y="18" rx="2" ry="2" width="12" height="12"/><rect class="c" x="50" y="34" rx="2" ry="2" width="12" height="12"/><rect class="c" x="50" y="50" rx="2" ry="2" width="12" height="12"/><rect class="c" x="50" y="66" rx="2" ry="2" width="12" height="12"/><rect class="c" x="50" y="82" rx="2" ry="2" width="12" height="12"/><rect class="c" x="50" y="98" rx="2" ry="2" width="12" height="12"/><rect class="c" x="66" y="2" rx="2" ry="2" width="12" height="12"/><rect class="c" x="66" y="18" rx="2" ry="2" width="12" height="12"/><rect class="c" x="66" y="34" rx="2" ry="2" width="12" height="12"/><rect class="c" x="66" y="50" rx="2" ry="2" width="12" height="12"/><rect class="c" x="66" y="66" rx="2" ry="2" width="12" height="12"/><rect class="c" x="66" y="82" rx="2" ry="2" width="12" height="12"/><rect class="c" x="66" y="98" rx="2" ry="2" width="12" height="12"/><rect class="c" x="82" y="2" rx="2" ry="2" width="12" height="12"/><rect class="c" x="82" y="18" rx="2" ry="2" width="12" height="12"/><rect class="c" x="82" y="34" rx="2" ry="2" width="12" height="12"/><rect class="c" x="82" y="50" rx="2" ry="2" width="12" height="12"/><rect class="c" x="82" y="66" rx="2" ry="2" width="12" height="12"/><rect class="c" x="82" y="82" rx="2" ry="2" width="12" height="12"/><rect class="c" x="82" y="98" rx="2" ry="2" width="12" height="12"/><rect class="c" x="98" y="2" rx="2" ry="2" width="12" height="12"/><rect class="c" x="98" y="18" rx="2" ry="2" width="12" height="12"/><rect class="c" x="98" y="34" rx="2" ry="2" width="12" height="12"/><rect class="c" x="98" y="50" rx="2" ry="2" width="12" height="12"/><rect class="c" x="98" y="66" rx="2" ry="2" width="12" height="12"/><rect class="c" x="98" y="82" rx="2" ry="2" width="12" height="12"/><rect class="c" x="98" y="98" rx="2" ry="2" width="12" height="12"/><rect class="c" x="114" y="2" rx="2" ry="2" width="12" height="12"/><rect class="c" x="114" y="18" rx="2" ry="2" width="12" height="12"/><rect class="c" x="114" y="34" rx="2" ry="2" width="12" height="12"/><rect class="c" x="114" y="50" rx="2" ry="2" width="12" height="12"/><rect class="c" x="114" y="66" rx="2" ry="2" width="12" height="12"/><rect class="c" x="114" y="82" rx="2" ry="2" width="12" height="12"/><rect class="c" x="114" y="98" rx="2" ry="2" width="12" height="12"/><rect class="c c0" x="130" y="2" rx="2" ry="2" width="12" height="12"/><rect class="c c1" x="130" y="18" rx="2" ry="2" width="12" height="12"/><rect class="c c2" x="130" y="34" rx="2" ry="2" width="12" height="12"/><rect class="c" x="130" y="50" rx="2" ry="2" width="12" height="12"/><rect class="c c3" x="130" y="66" rx="2" ry="2" width="12" height="12"/><rect class="c" x="130" y="82" rx="2" ry="2" width="12" height="12"/><rect class="c" x="130" y="98" rx="2" ry="2" width="12" height="12"/><rect class="c" x="146" y="2" rx="2" ry="2" width="12" height="12"/><rect class="c" x="146" y="18" rx="2" ry="2" width="12" height="12"/><rect class="c" x="146" y="34" rx="2" ry="2" width="12" height="12"/><rect class="c" x="146" y="50" rx="2" ry="2" width="12" height="12"/><rect class="c" x="146" y="66" rx="2" ry="2" width="12" height="12"/><rect class="c" x="146" y="82" rx="2" ry="2" width="12" height="12"/><rect class="c" x="146" y="98" rx="2" ry="2" width="12" height="12"/><rect class="c" x="162" y="2" rx="2" ry="2" width="12" height="12"/><rect class="c" x="162" y="18" rx="2" ry="2" width="12" height="12"/><rect class="c" x="162" y="34" rx="2" ry="2" width="12" height="12"/><rect class="c" x="162" y="50" rx="2" ry="2" width="12" height="12"/><rect class="c" x="162" y="66" rx="2" ry="2" width="12" height="12"/><rect class="c" x="162" y="82" rx="2" ry="2" width="12" height="12"/><rect class="c" x="162" y="98" rx="2" ry="2" width="12" height="12"/><rect class="c" x="178" y="2" rx="2" ry="2" width="12" height="12"/><rect class="c" x="178" y="18" rx="2" ry="2" width="12" height="12"/><rect class="c" x="178" y="34" rx="2" ry="2" width="12" height="12"/><rect class="c" x="178" y="50" rx="2" ry="2" width="12" height="12"/><rect class="c" x="178" y="66" rx="2" ry="2" width="12" height="12"/><rect class="c" x="178" y="82" rx="2" ry="2" width="12" height="12"/><rect class="c" x="178" y="98" rx="2" ry="2" width="12" height="12"/><rect class="c" x="194" y="2" rx="2" ry="2" width="12" height="12"/><rect class="c" x="194" y="18" rx="2" ry="2" width="12" height="12"/><rect class="c" x="194" y="34" rx="2" ry="2" width="12" height="12"/><rect class="c" x="194" y="50" rx="2" ry="2" width="12" height="12"/><rect class="c" x="194" y="66" rx="2" ry="2" width="12" height="12"/><rect class="c" x="194" y="82" rx="2" ry="2" width="12" height="12"/><rect class="c" x="194" y="98" rx="2" ry="2" width="12" height="12"/><rect class="c" x="210" y="2" rx="2" ry="2" width="12" height="12"/><rect class="c" x="210" y="18" rx="2" ry="2" width="12" height="12"/><rect class="c" x="210" y="34" rx="2" ry="2" width="12" height="12"/><rect class="c" x="210" y="50" rx="2" ry="2" width="12" height="12"/><rect class="c" x="210" y="66" rx="2" ry="2" width="12" height="12"/><rect class="c" x="210" y="82" rx="2" ry="2" width="12" height="12"/><rect class="c" x="210" y="98" rx="2" ry="2" width="12" height="12"/><rect class="c" x="226" y="2" rx="2" ry="2" width="12" height="12"/><rect class="c" x="226" y="18" rx="2" ry="2" width="12" height="12"/><rect class="c" x="226" y="34" rx="2" ry="2" width="12" height="12"/><rect class="c" x="226" y="50" rx="2" ry="2" width="12" height="12"/><rect class="c" x="226" y="66" rx="2" ry="2" width="12" height="12"/><rect class="c" x="226" y="82" rx="2" ry="2" width="12" height="12"/><rect class="c" x="226" y="98" rx="2" ry="2" width="12" height="12"/><rect class="c" x="242" y="2" rx="2" ry="2" width="12" height="12"/><rect class="c" x="242" y="18" rx="2" ry="2" width="12" height="12"/><rect class="c" x="242" y="34" rx="2" ry="2" width="12" height="12"/><rect class="c" x="242" y="50" rx="2" ry="2" width="12" height="12"/><rect class="c" x="242" y="66" rx="2" ry="2" width="12" height="12"/><rect class="c" x="242" y="82" rx="2" ry="2" width="12" height="12"/><rect class="c" x="242" y="98" rx="2" ry="2" width="12" height="12"/><rect class="c" x="258" y="2" rx="2" ry="2" width="12" height="12"/><rect class="c" x="258" y="18" rx="2" ry="2" width="12" height="12"/><rect class="c" x="258" y="34" rx="2" ry="2" width="12" height="12"/><rect class="c" x="258" y="50" rx="2" ry="2" width="12" height="12"/><rect class="c" x="258" y="66" rx="2" ry="2" width="12" height="12"/><rect class="c" x="258" y="82" rx="2" ry="2" width="12" height="12"/><rect class="c" x="258" y="98" rx="2" ry="2" width="12" height="12"/><rect class="c" x="274" y="2" rx="2" ry="2" width="12" height="12"/><rect class="c" x="274" y="18" rx="2" ry="2" width="12" height="12"/><rect class="c" x="274" y="34" rx="2" ry="2" width="12" height="12"/><rect class="c" x="274" y="50" rx="2" ry="2" width="12" height="12"/><rect class="c" x="274" y="66" rx="2" ry="2" width="12" height="12"/><rect class="c" x="274" y="82" rx="2" ry="2" width="12" height="12"/><rect class="c" x="274" y="98" rx="2" ry="2" width="12" height="12"/><rect class="c" x="290" y="2" rx="2" ry="2" width="12" height="12"/><rect class="c" x="290" y="18" rx="2" ry="2" width="12" height="12"/><rect class="c" x="290" y="34" rx="2" ry="2" width="12" height="12"/><rect class="c" x="290" y="50" rx="2" ry="2" width="12" height="12"/><rect class="c" x="290" y="66" rx="2" ry="2" width="12" height="12"/><rect class="c" x="290" y="82" rx="2" ry="2" width="12" height="12"/><rect class="c" x="290" y="98" rx="2" ry="2" width="12" height="12"/><rect class="c" x="306" y="2" rx="2" ry="2" width="12" height="12"/><rect class="c" x="306" y="18" rx="2" ry="2" width="12" height="12"/><rect class="c" x="306" y="34" rx="2" ry="2" width="12" height="12"/><rect class="c" x="306" y="50" rx="2" ry="2" width="12" height="12"/><rect class="c" x="306" y="66" rx="2" ry="2" width="12" height="12"/><rect class="c" x="306" y="82" rx="2" ry="2" width="12" height="12"/><rect class="c" x="306" y="98" rx="2" ry="2" width="12" height="12"/><rect class="c" x="322" y="2" rx="2" ry="2" width="12" height="12"/><rect class="c" x="322" y="18" rx="2" ry="2" width="12" height="12"/><rect class="c" x="322" y="34" rx="2" ry="2" width="12" height="12"/><rect class="c" x="322" y="50" rx="2" ry="2" width="12" height="12"/><rect class="c" x="322" y="66" rx="2" ry="2" width="12" height="12"/><rect class="c" x="322" y="82" rx="2" ry="2" width="12" height="12"/><rect class="c" x="322" y="98" rx="2" ry="2" width="12" height="12"/><rect class="c" x="338" y="2" rx="2" ry="2" width="12" height="12"/><rect class="c" x="338" y="18" rx="2" ry="2" width="12" height="12"/><rect class="c" x="338" y="34" rx="2" ry="2" width="12" height="12"/><rect class="c" x="338" y="50" rx="2" ry="2" width="12" height="12"/><rect class="c" x="338" y="66" rx="2" ry="2" width="12" height="12"/><rect class="c" x="338" y="82" rx="2" ry="2" width="12" height="12"/><rect class="c" x="338" y="98" rx="2" ry="2" width="12" height="12"/><rect class="c" x="354" y="2" rx="2" ry="2" width="12" height="12"/><rect class="c" x="354" y="18" rx="2" ry="2" width="12" height="12"/><rect class="c" x="354" y="34" rx="2" ry="2" width="12" height="12"/><rect class="c" x="354" y="50" rx="2" ry="2" width="12" height="12"/><rect class="c" x="354" y="66" rx="2" ry="2" width="12" height="12"/><rect class="c" x="354" y="82" rx="2" ry="2" width="12" height="12"/><rect class="c" x="354" y="98" rx="2" ry="2" width="12" height="12"/><rect class="c" x="370" y="2" rx="2" ry="2" width="12" height="12"/><rect class="c" x="370" y="18" rx="2" ry="2" width="12" height="12"/><rect class="c" x="370" y="34" rx="2" ry="2" width="12" height="12"/><rect class="c" x="370" y="50" rx="2" ry="2" width="12" height="12"/><rect class="c" x="370" y="66" rx="2" ry="2" width="12" height="12"/><rect class="c" x="370" y="82" rx="2" ry="2" width="12" height="12"/><rect class="c" x="370" y="98" rx="2" ry="2" width="12" height="12"/><rect class="c" x="386" y="2" rx="2" ry="2" width="12" height="12"/><rect class="c" x="386" y="18" rx="2" ry="2" width="12" height="12"/><rect class="c" x="386" y="34" rx="2" ry="2" width="12" height="12"/><rect class="c" x="386" y="50" rx="2" ry="2" width="12" height="12"/><rect class="c" x="386" y="66" rx="2" ry="2" width="12" height="12"/><rect class="c" x="386" y="82" rx="2" ry="2" width="12" height="12"/><rect class="c" x="386" y="98" rx="2" ry="2" width="12" height="12"/><rect class="c" x="402" y="2" rx="2" ry="2" width="12" height="12"/><rect class="c" x="402" y="18" rx="2" ry="2" width="12" height="12"/><rect class="c" x="402" y="34" rx="2" ry="2" width="12" height="12"/><rect class="c" x="402" y="50" rx="2" ry="2" width="12" height="12"/><rect class="c" x="402" y="66" rx="2" ry="2" width="12" height="12"/><rect class="c" x="402" y="82" rx="2" ry="2" width="12" height="12"/><rect class="c" x="402" y="98" rx="2" ry="2" width="12" height="12"/><rect class="c" x="418" y="2" rx="2" ry="2" width="12" height="12"/><rect class="c" x="418" y="18" rx="2" ry="2" width="12" height="12"/><rect class="c" x="418" y="34" rx="2" ry="2" width="12" height="12"/><rect class="c" x="418" y="50" rx="2" ry="2" width="12" height="12"/><rect class="c" x="418" y="66" rx="2" ry="2" width="12" height="12"/><rect class="c c4" x="418" y="82" rx="2" ry="2" width="12" height="12"/><rect class="c" x="418" y="98" rx="2" ry="2" width="12" height="12"/><rect class="c" x="434" y="2" rx="2" ry="2" width="12" height="12"/><rect class="c" x="434" y="18" rx="2" ry="2" width="12" height="12"/><rect class="c" x="434" y="34" rx="2" ry="2" width="12" height="12"/><rect class="c" x="434" y="50" rx="2" ry="2" width="12" height="12"/><rect class="c" x="434" y="66" rx="2" ry="2" width="12" height="12"/><rect class="c" x="434" y="82" rx="2" ry="2" width="12" height="12"/><rect class="c" x="434" y="98" rx="2" ry="2" width="12" height="12"/><rect class="c" x="450" y="2" rx="2" ry="2" width="12" height="12"/><rect class="c" x="450" y="18" rx="2" ry="2" width="12" height="12"/><rect class="c" x="450" y="34" rx="2" ry="2" width="12" height="12"/><rect class="c" x="450" y="50" rx="2" ry="2" width="12" height="12"/><rect class="c" x="450" y="66" rx="2" ry="2" width="12" height="12"/><rect class="c" x="450" y="82" rx="2" ry="2" width="12" height="12"/><rect class="c" x="450" y="98" rx="2" ry="2" width="12" height="12"/><rect class="c" x="466" y="2" rx="2" ry="2" width="12" height="12"/><rect class="c" x="466" y="18" rx="2" ry="2" width="12" height="12"/><rect class="c" x="466" y="34" rx="2" ry="2" width="12" height="12"/><rect class="c" x="466" y="50" rx="2" ry="2" width="12" height="12"/><rect class="c" x="466" y="66" rx="2" ry="2" width="12" height="12"/><rect class="c" x="466" y="82" rx="2" ry="2" width="12" height="12"/><rect class="c" x="466" y="98" rx="2" ry="2" width="12" height="12"/><rect class="c" x="482" y="2" rx="2" ry="2" width="12" height="12"/><rect class="c" x="482" y="18" rx="2" ry="2" width="12" height="12"/><rect class="c" x="482" y="34" rx="2" ry="2" width="12" height="12"/><rect class="c" x="482" y="50" rx="2" ry="2" width="12" height="12"/><rect class="c" x="482" y="66" rx="2" ry="2" width="12" height="12"/><rect class="c" x="482" y="82" rx="2" ry="2" width="12" height="12"/><rect class="c" x="482" y="98" rx="2" ry="2" width="12" height="12"/><rect class="c" x="498" y="2" rx="2" ry="2" width="12" height="12"/><rect class="c" x="498" y="18" rx="2" ry="2" width="12" height="12"/><rect class="c" x="498" y="34" rx="2" ry="2" width="12" height="12"/><rect class="c" x="498" y="50" rx="2" ry="2" width="12" height="12"/><rect class="c" x="498" y="66" rx="2" ry="2" width="12" height="12"/><rect class="c" x="498" y="82" rx="2" ry="2" width="12" height="12"/><rect class="c" x="498" y="98" rx="2" ry="2" width="12" height="12"/><rect class="c" x="514" y="2" rx="2" ry="2" width="12" height="12"/><rect class="c" x="514" y="18" rx="2" ry="2" width="12" height="12"/><rect class="c" x="514" y="34" rx="2" ry="2" width="12" height="12"/><rect class="c" x="514" y="50" rx="2" ry="2" width="12" height="12"/><rect class="c" x="514" y="66" rx="2" ry="2" width="12" height="12"/><rect class="c" x="514" y="82" rx="2" ry="2" width="12" height="12"/><rect class="c c5" x="514" y="98" rx="2" ry="2" width="12" height="12"/><rect class="c" x="530" y="2" rx="2" ry="2" width="12" height="12"/><rect class="c" x="530" y="18" rx="2" ry="2" width="12" height="12"/><rect class="c c6" x="530" y="34" rx="2" ry="2" width="12" height="12"/><rect class="c c7" x="530" y="50" rx="2" ry="2" width="12" height="12"/><rect class="c c8" x="530" y="66" rx="2" ry="2" width="12" height="12"/><rect class="c c9" x="530" y="82" rx="2" ry="2" width="12" height="12"/><rect class="c" x="530" y="98" rx="2" ry="2" width="12" height="12"/><rect class="c ca" x="546" y="2" rx="2" ry="2" width="12" height="12"/><rect class="c" x="546" y="18" rx="2" ry="2" width="12" height="12"/><rect class="c cb" x="546" y="34" rx="2" ry="2" width="12" height="12"/><rect class="c cc" x="546" y="50" rx="2" ry="2" width="12" height="12"/><rect class="c cd" x="546" y="66" rx="2" ry="2" width="12" height="12"/><rect class="c" x="546" y="82" rx="2" ry="2" width="12" height="12"/><rect class="c" x="546" y="98" rx="2" ry="2" width="12" height="12"/><rect class="c" x="562" y="2" rx="2" ry="2" width="12" height="12"/><rect class="c ce" x="562" y="18" rx="2" ry="2" width="12" height="12"/><rect class="c cf" x="562" y="34" rx="2" ry="2" width="12" height="12"/><rect class="c cg" x="562" y="50" rx="2" ry="2" width="12" height="12"/><rect class="c ch" x="562" y="66" rx="2" ry="2" width="12" height="12"/><rect class="c ci" x="562" y="82" rx="2" ry="2" width="12" height="12"/><rect class="c cj" x="562" y="98" rx="2" ry="2" width="12" height="12"/><rect class="c ck" x="578" y="2" rx="2" ry="2" width="12" height="12"/><rect class="c cl" x="578" y="18" rx="2" ry="2" width="12" height="12"/><rect class="c cm" x="578" y="34" rx="2" ry="2" width="12" height="12"/><rect class="c" x="578" y="50" rx="2" ry="2" width="12" height="12"/><rect class="c" x="578" y="66" rx="2" ry="2" width="12" height="12"/><rect class="c cn" x="578" y="82" rx="2" ry="2" width="12" height="12"/><rect class="c" x="578" y="98" rx="2" ry="2" width="12" height="12"/><rect class="c" x="594" y="2" rx="2" ry="2" width="12" height="12"/><rect class="c co" x="594" y="18" rx="2" ry="2" width="12" height="12"/><rect class="c" x="594" y="34" rx="2" ry="2" width="12" height="12"/><rect class="c cp" x="594" y="50" rx="2" ry="2" width="12" height="12"/><rect class="c" x="594" y="66" rx="2" ry="2" width="12" height="12"/><rect class="c" x="594" y="82" rx="2" ry="2" width="12" height="12"/><rect class="c" x="594" y="98" rx="2" ry="2" width="12" height="12"/><rect class="c cq" x="610" y="2" rx="2" ry="2" width="12" height="12"/><rect class="c cr" x="610" y="18" rx="2" ry="2" width="12" height="12"/><rect class="c cs" x="610" y="34" rx="2" ry="2" width="12" height="12"/><rect class="c ct" x="610" y="50" rx="2" ry="2" width="12" height="12"/><rect class="c cu" x="610" y="66" rx="2" ry="2" width="12" height="12"/><rect class="c cv" x="610" y="82" rx="2" ry="2" width="12" height="12"/><rect class="c cw" x="610" y="98" rx="2" ry="2" width="12" height="12"/><rect class="c" x="626" y="2" rx="2" ry="2" width="12" height="12"/><rect class="c cx" x="626" y="18" rx="2" ry="2" width="12" height="12"/><rect class="c cy" x="626" y="34" rx="2" ry="2" width="12" height="12"/><rect class="c cz" x="626" y="50" rx="2" ry="2" width="12" height="12"/><rect class="c c10" x="626" y="66" rx="2" ry="2" width="12" height="12"/><rect class="c" x="626" y="82" rx="2" ry="2" width="12" height="12"/><rect class="c" x="626" y="98" rx="2" ry="2" width="12" height="12"/><rect class="c" x="642" y="2" rx="2" ry="2" width="12" height="12"/><rect class="c" x="642" y="18" rx="2" ry="2" width="12" height="12"/><rect class="c" x="642" y="34" rx="2" ry="2" width="12" height="12"/><rect class="c" x="642" y="50" rx="2" ry="2" width="12" height="12"/><rect class="c" x="642" y="66" rx="2" ry="2" width="12" height="12"/><rect class="c" x="642" y="82" rx="2" ry="2" width="12" height="12"/><rect class="c" x="642" y="98" rx="2" ry="2" width="12" height="12"/><rect class="c" x="658" y="2" rx="2" ry="2" width="12" height="12"/><rect class="c c11" x="658" y="18" rx="2" ry="2" width="12" height="12"/><rect class="c c12" x="658" y="34" rx="2" ry="2" width="12" height="12"/><rect class="c c13" x="658" y="50" rx="2" ry="2" width="12" height="12"/><rect class="c" x="658" y="66" rx="2" ry="2" width="12" height="12"/><rect class="c" x="658" y="82" rx="2" ry="2" width="12" height="12"/><rect class="c" x="658" y="98" rx="2" ry="2" width="12" height="12"/><rect class="c" x="674" y="2" rx="2" ry="2" width="12" height="12"/><rect class="c" x="674" y="18" rx="2" ry="2" width="12" height="12"/><rect class="c" x="674" y="34" rx="2" ry="2" width="12" height="12"/><rect class="c" x="674" y="50" rx="2" ry="2" width="12" height="12"/><rect class="c" x="674" y="66" rx="2" ry="2" width="12" height="12"/><rect class="c" x="674" y="82" rx="2" ry="2" width="12" height="12"/><rect class="c c14" x="674" y="98" rx="2" ry="2" width="12" height="12"/><rect class="c" x="690" y="2" rx="2" ry="2" width="12" height="12"/><rect class="c" x="690" y="18" rx="2" ry="2" width="12" height="12"/><rect class="c" x="690" y="34" rx="2" ry="2" width="12" height="12"/><rect class="c c15" x="690" y="50" rx="2" ry="2" width="12" height="12"/><rect class="c c16" x="690" y="66" rx="2" ry="2" width="12" height="12"/><rect class="c c17" x="690" y="82" rx="2" ry="2" width="12" height="12"/><rect class="c" x="690" y="98" rx="2" ry="2" width="12" height="12"/><rect class="c c18" x="706" y="2" rx="2" ry="2" width="12" height="12"/><rect class="c" x="706" y="18" rx="2" ry="2" width="12" height="12"/><rect class="c" x="706" y="34" rx="2" ry="2" width="12" height="12"/><rect class="c" x="706" y="50" rx="2" ry="2" width="12" height="12"/><rect class="c c19" x="706" y="66" rx="2" ry="2" width="12" height="12"/><rect class="c c1a" x="706" y="82" rx="2" ry="2" width="12" height="12"/><rect class="c" x="706" y="98" rx="2" ry="2" width="12" height="12"/><rect class="c" x="722" y="2" rx="2" ry="2" width="12" height="12"/><rect class="c" x="722" y="18" rx="2" ry="2" width="12" height="12"/><rect class="c" x="722" y="34" rx="2" ry="2" width="12" height="12"/><rect class="c" x="722" y="50" rx="2" ry="2" width="12" height="12"/><rect class="c c1b" x="722" y="66" rx="2" ry="2" width="12" height="12"/><rect class="c" x="722" y="82" rx="2" ry="2" width="12" height="12"/><rect class="c" x="722" y="98" rx="2" ry="2" width="12" height="12"/><rect class="c" x="738" y="2" rx="2" ry="2" width="12" height="12"/><rect class="c c1c" x="738" y="18" rx="2" ry="2" width="12" height="12"/><rect class="c" x="738" y="34" rx="2" ry="2" width="12" height="12"/><rect class="c" x="738" y="50" rx="2" ry="2" width="12" height="12"/><rect class="c c1d" x="738" y="66" rx="2" ry="2" width="12" height="12"/><rect class="c c1e" x="738" y="82" rx="2" ry="2" width="12" height="12"/><rect class="c c1f" x="738" y="98" rx="2" ry="2" width="12" height="12"/><rect class="c" x="754" y="2" rx="2" ry="2" width="12" height="12"/><rect class="c" x="754" y="18" rx="2" ry="2" width="12" height="12"/><rect class="c" x="754" y="34" rx="2" ry="2" width="12" height="12"/><rect class="c" x="754" y="50" rx="2" ry="2" width="12" height="12"/><rect class="c" x="754" y="66" rx="2" ry="2" width="12" height="12"/><rect class="c c1g" x="754" y="82" rx="2" ry="2" width="12" height="12"/><rect class="c" x="754" y="98" rx="2" ry="2" width="12" height="12"/><rect class="c" x="770" y="2" rx="2" ry="2" width="12" height="12"/><rect class="c" x="770" y="18" rx="2" ry="2" width="12" height="12"/><rect class="c c1h" x="770" y="34" rx="2" ry="2" width="12" height="12"/><rect class="c" x="770" y="50" rx="2" ry="2" width="12" height="12"/><rect class="c" x="770" y="66" rx="2" ry="2" width="12" height="12"/><rect class="c" x="770" y="82" rx="2" ry="2" width="12" height="12"/><rect class="c c1i" x="770" y="98" rx="2" ry="2" width="12" height="12"/><rect class="c" x="786" y="2" rx="2" ry="2" width="12" height="12"/><rect class="c" x="786" y="18" rx="2" ry="2" width="12" height="12"/><rect class="c c1j" x="786" y="34" rx="2" ry="2" width="12" height="12"/><rect class="c" x="786" y="50" rx="2" ry="2" width="12" height="12"/><rect class="c c1k" x="786" y="66" rx="2" ry="2" width="12" height="12"/><rect class="c" x="786" y="82" rx="2" ry="2" width="12" height="12"/><rect class="c" x="786" y="98" rx="2" ry="2" width="12" height="12"/><rect class="c c1l" x="802" y="2" rx="2" ry="2" width="12" height="12"/><rect class="c" x="802" y="18" rx="2" ry="2" width="12" height="12"/><rect class="c c1m" x="802" y="34" rx="2" ry="2" width="12" height="12"/><rect class="c" x="802" y="50" rx="2" ry="2" width="12" height="12"/><rect class="c" x="802" y="66" rx="2" ry="2" width="12" height="12"/><rect class="c c1n" x="802" y="82" rx="2" ry="2" width="12" height="12"/><rect class="c c1o" x="802" y="98" rx="2" ry="2" width="12" height="12"/><rect class="c c1p" x="818" y="2" rx="2" ry="2" width="12" height="12"/><rect class="c" x="818" y="18" rx="2" ry="2" width="12" height="12"/><rect class="c" x="818" y="34" rx="2" ry="2" width="12" height="12"/><rect class="c" x="818" y="50" rx="2" ry="2" width="12" height="12"/><rect class="c" x="818" y="66" rx="2" ry="2" width="12" height="12"/><rect class="c" x="818" y="82" rx="2" ry="2" width="12" height="12"/><rect class="c" x="818" y="98" rx="2" ry="2" width="12" height="12"/><rect class="c" x="834" y="2" rx="2" ry="2" width="12" height="12"/><rect class="c" x="834" y="18" rx="2" ry="2" width="12" height="12"/><rect class="c c1q" x="834" y="34" rx="2" ry="2" width="12" height="12"/><rect class="u u0" height="12" width="417.9" x="0.0" y="144"/><rect class="u u1" height="12" width="256.3" x="417.3" y="144"/><rect class="u u2" height="12" width="94.8" x="673.0" y="144"/><rect class="u u3" height="12" width="81.4" x="767.2" y="144"/><rect class="s s0" x="0.8" y="0.8" width="14.4" height="14.4" rx="4.5" ry="4.5"/><rect class="s s1" x="1.8" y="1.8" width="12.3" height="12.3" rx="4.1" ry="4.1"/><rect class="s s2" x="2.6" y="2.6" width="10.8" height="10.8" rx="3.6" ry="3.6"/><rect class="s s3" x="3.0" y="3.0" width="9.9" height="9.9" rx="3.3" ry="3.3"/></svg>