<svg viewBox="-16 -32 880 192" width="880" height="192" xmlns="http://www.w3.org/2000/svg"><desc>Generated with https://github.com/Platane/snk</desc><style>@keyframes c0{62.7%{fill:var(--c2)}62.72%,to{fill:var(--ce)}}@keyframes c1{2.02%{fill:var(--c1)}2.04%,to{fill:var(--ce)}}@keyframes c2{66.09%{fill:var(--c4)}66.11%,to{fill:var(--ce)}}@keyframes c3{64.74%{fill:var(--c2)}64.76%,to{fill:var(--ce)}}@keyframes c4{9.48%{fill:var(--c1)}9.5%,to{fill:var(--ce)}}@keyframes c5{28.8%{fill:var(--c1)}28.82%,to{fill:var(--ce)}}@keyframes c6{12.19%{fill:var(--c1)}12.21%,to{fill:var(--ce)}}@keyframes c7{11.85%{fill:var(--c1)}11.87%,to{fill:var(--ce)}}@keyframes c8{27.45%{fill:var(--c1)}27.47%,to{fill:var(--ce)}}@keyframes c9{26.77%{fill:var(--c1)}26.79%,to{fill:var(--ce)}}@keyframes ca{26.43%{fill:var(--c1)}26.45%,to{fill:var(--ce)}}@keyframes cb{12.53%{fill:var(--c1)}12.55%,to{fill:var(--ce)}}@keyframes cc{13.89%{fill:var(--c1)}13.91%,to{fill:var(--ce)}}@keyframes cd{13.55%{fill:var(--c1)}13.57%,to{fill:var(--ce)}}@keyframes ce{13.21%{fill:var(--c1)}13.23%,to{fill:var(--ce)}}@keyframes cf{12.87%{fill:var(--c1)}12.89%,to{fill:var(--ce)}}@keyframes cg{14.57%{fill:var(--c1)}14.59%,to{fill:var(--ce)}}@keyframes ch{25.41%{fill:var(--c1)}25.43%,to{fill:var(--ce)}}@keyframes ci{15.24%{fill:var(--c1)}15.26%,to{fill:var(--ce)}}@keyframes cj{52.19%{fill:var(--c2)}52.21%,to{fill:var(--ce)}}@keyframes ck{24.74%{fill:var(--c1)}24.76%,to{fill:var(--ce)}}@keyframes cl{24.4%{fill:var(--c1)}24.42%,to{fill:var(--ce)}}@keyframes cm{23.38%{fill:var(--c1)}23.4%,to{fill:var(--ce)}}@keyframes cn{22.7%{fill:var(--c1)}22.72%,to{fill:var(--ce)}}@keyframes co{23.72%{fill:var(--c1)}23.74%,to{fill:var(--ce)}}@keyframes cp{16.6%{fill:var(--c1)}16.62%,to{fill:var(--ce)}}@keyframes cq{16.94%{fill:var(--c1)}16.96%,to{fill:var(--ce)}}@keyframes cr{17.28%{fill:var(--c1)}17.3%,to{fill:var(--ce)}}@keyframes cs{21.35%{fill:var(--c1)}21.37%,to{fill:var(--ce)}}@keyframes ct{18.3%{fill:var(--c1)}18.32%,to{fill:var(--ce)}}@keyframes cu{20.67%{fill:var(--c1)}20.69%,to{fill:var(--ce)}}@keyframes cv{33.55%{fill:var(--c1)}33.57%,to{fill:var(--ce)}}@keyframes cw{18.63%{fill:var(--c1)}18.65%,to{fill:var(--ce)}}@keyframes cx{20.33%{fill:var(--c1)}20.35%,to{fill:var(--ce)}}@keyframes cy{18.97%{fill:var(--c1)}18.99%,to{fill:var(--ce)}}@keyframes cz{19.31%{fill:var(--c1)}19.33%,to{fill:var(--ce)}}@keyframes c10{36.26%{fill:var(--c1)}36.28%,to{fill:var(--ce)}}@keyframes c11{81.68%{fill:var(--c4)}81.7%,to{fill:var(--ce)}}@keyframes c12{81.35%{fill:var(--c4)}81.37%,to{fill:var(--ce)}}@keyframes c13{44.06%{fill:var(--c2)}44.08%,to{fill:var(--ce)}}@keyframes c14{43.72%{fill:var(--c2)}43.74%,to{fill:var(--ce)}}@keyframes c15{37.96%{fill:var(--c1)}37.98%,to{fill:var(--ce)}}@keyframes c16{47.11%{fill:var(--c2)}47.13%,to{fill:var(--ce)}}@keyframes c17{82.02%{fill:var(--c4)}82.04%,to{fill:var(--ce)}}@keyframes c18{46.43%{fill:var(--c2)}46.45%,to{fill:var(--ce)}}@keyframes c19{41.35%{fill:var(--c1)}41.37%,to{fill:var(--ce)}}@keyframes c1a{41.68%{fill:var(--c1)}41.7%,to{fill:var(--ce)}}@keyframes c1b{40.67%{fill:var(--c1)}40.69%,to{fill:var(--ce)}}@keyframes c1c{41.01%{fill:var(--c1)}41.03%,to{fill:var(--ce)}}@keyframes c1d{42.02%{fill:var(--c1)}42.04%,to{fill:var(--ce)}}@keyframes c1e{42.36%{fill:var(--c1)}42.38%,to{fill:var(--ce)}}@keyframes c1f{42.7%{fill:var(--c1)}42.72%,to{fill:var(--ce)}}@keyframes c1g{39.65%{fill:var(--c1)}39.67%,to{fill:var(--ce)}}@keyframes u0{2.02%{transform:scale(0,1)}2.04%,9.48%{transform:scale(.02,1)}11.85%,9.5%{transform:scale(.05,1)}11.87%,12.19%{transform:scale(.07,1)}12.21%,12.53%{transform:scale(.1,1)}12.55%,12.87%{transform:scale(.12,1)}12.89%,13.21%{transform:scale(.14,1)}13.23%,13.55%{transform:scale(.17,1)}13.57%,13.89%{transform:scale(.19,1)}13.91%,14.57%{transform:scale(.21,1)}14.59%,15.24%{transform:scale(.24,1)}15.26%,16.6%{transform:scale(.26,1)}16.62%,16.94%{transform:scale(.29,1)}16.96%,17.28%{transform:scale(.31,1)}17.3%,18.3%{transform:scale(.33,1)}18.32%,18.63%{transform:scale(.36,1)}18.65%,18.97%{transform:scale(.38,1)}18.99%,19.31%{transform:scale(.4,1)}19.33%,20.33%{transform:scale(.43,1)}20.35%,20.67%{transform:scale(.45,1)}20.69%,21.35%{transform:scale(.48,1)}21.37%,22.7%{transform:scale(.5,1)}22.72%,23.38%{transform:scale(.52,1)}23.4%,23.72%{transform:scale(.55,1)}23.74%,24.4%{transform:scale(.57,1)}24.42%,24.74%{transform:scale(.6,1)}24.76%,25.41%{transform:scale(.62,1)}25.43%,26.43%{transform:scale(.64,1)}26.45%,26.77%{transform:scale(.67,1)}26.79%,27.45%{transform:scale(.69,1)}27.47%,28.8%{transform:scale(.71,1)}28.82%,33.55%{transform:scale(.74,1)}33.57%,36.26%{transform:scale(.76,1)}36.28%,37.96%{transform:scale(.79,1)}37.98%,39.65%{transform:scale(.81,1)}39.67%,40.67%{transform:scale(.83,1)}40.69%,41.01%{transform:scale(.86,1)}41.03%,41.35%{transform:scale(.88,1)}41.37%,41.68%{transform:scale(.9,1)}41.7%,42.02%{transform:scale(.93,1)}42.04%,42.36%{transform:scale(.95,1)}42.38%,42.7%{transform:scale(.98,1)}42.72%,to{transform:scale(1,1)}}@keyframes u1{43.72%{transform:scale(0,1)}43.74%,44.06%{transform:scale(.14,1)}44.08%,46.43%{transform:scale(.29,1)}46.45%,47.11%{transform:scale(.43,1)}47.13%,52.19%{transform:scale(.57,1)}52.21%,62.7%{transform:scale(.71,1)}62.72%,64.74%{transform:scale(.86,1)}64.76%,to{transform:scale(1,1)}}@keyframes u2{66.09%{transform:scale(0,1)}66.11%,81.35%{transform:scale(.25,1)}81.37%,81.68%{transform:scale(.5,1)}81.7%,82.02%{transform:scale(.75,1)}82.04%,to{transform:scale(1,1)}}@keyframes s0{0%,99.66%{transform:translate(0,-16px)}.34%{transform:translate(0,0)}1.36%,63.05%{transform:translate(48px,0)}1.69%,97.97%{transform:translate(48px,16px)}8.14%{transform:translate(352px,16px)}9.49%{transform:translate(352px,80px)}11.86%{transform:translate(464px,80px)}12.2%{transform:translate(464px,64px)}12.88%{transform:translate(496px,64px)}13.9%{transform:translate(496px,16px)}14.58%{transform:translate(528px,16px)}14.92%{transform:translate(528px,0)}16.27%{transform:translate(592px,0)}17.29%{transform:translate(592px,48px)}17.97%{transform:translate(624px,48px)}18.31%{transform:translate(624px,64px)}19.32%{transform:translate(672px,64px)}19.66%{transform:translate(672px,80px)}21.02%{transform:translate(608px,80px)}21.36%{transform:translate(608px,96px)}22.71%{transform:translate(544px,96px)}23.39%{transform:translate(544px,64px)}23.73%{transform:translate(560px,64px)}24.07%{transform:translate(560px,48px)}24.41%{transform:translate(544px,48px)}24.75%{transform:translate(544px,32px)}25.08%{transform:translate(528px,32px)}25.42%{transform:translate(528px,48px)}26.44%{transform:translate(480px,48px)}27.46%{transform:translate(480px,0)}27.8%{transform:translate(464px,0)}28.81%{transform:translate(464px,48px)}32.54%{transform:translate(640px,48px)}33.56%{transform:translate(640px,0)}35.59%{transform:translate(736px,0)}36.27%{transform:translate(736px,32px)}36.61%{transform:translate(752px,32px)}36.95%{transform:translate(752px,16px)}37.29%{transform:translate(768px,16px)}37.63%{transform:translate(768px,0)}37.97%,46.78%{transform:translate(784px,0)}38.31%{transform:translate(784px,-16px)}39.32%{transform:translate(832px,-16px)}39.66%{transform:translate(832px,0)}40%{transform:translate(816px,0)}41.02%{transform:translate(816px,48px)}41.36%{transform:translate(800px,48px)}41.69%{transform:translate(800px,64px)}42.03%{transform:translate(816px,64px)}42.71%{transform:translate(816px,96px)}43.73%{transform:translate(768px,96px)}44.07%{transform:translate(768px,80px)}44.75%{transform:translate(800px,80px)}46.44%{transform:translate(800px,0)}47.12%,82.37%{transform:translate(784px,16px)}52.2%{transform:translate(544px,16px)}52.54%{transform:translate(544px,0)}64.07%{transform:translate(48px,48px)}64.41%,66.44%{transform:translate(64px,48px)}64.75%{transform:translate(64px,64px)}65.08%{transform:translate(80px,64px)}65.76%{transform:translate(80px,32px)}66.1%{transform:translate(64px,32px)}81.36%{transform:translate(768px,48px)}81.69%{transform:translate(768px,32px)}82.03%{transform:translate(784px,32px)}98.64%{transform:translate(48px,-16px)}}@keyframes s1{0%,99.66%{transform:translate(16px,-16px)}.34%{transform:translate(0,-16px)}.68%{transform:translate(0,0)}1.69%,63.39%{transform:translate(48px,0)}2.03%,98.31%{transform:translate(48px,16px)}8.47%{transform:translate(352px,16px)}9.83%{transform:translate(352px,80px)}12.2%{transform:translate(464px,80px)}12.54%{transform:translate(464px,64px)}13.22%{transform:translate(496px,64px)}14.24%{transform:translate(496px,16px)}14.92%{transform:translate(528px,16px)}15.25%{transform:translate(528px,0)}16.61%{transform:translate(592px,0)}17.63%{transform:translate(592px,48px)}18.31%{transform:translate(624px,48px)}18.64%{transform:translate(624px,64px)}19.66%{transform:translate(672px,64px)}20%{transform:translate(672px,80px)}21.36%{transform:translate(608px,80px)}21.69%{transform:translate(608px,96px)}23.05%{transform:translate(544px,96px)}23.73%{transform:translate(544px,64px)}24.07%{transform:translate(560px,64px)}24.41%{transform:translate(560px,48px)}24.75%{transform:translate(544px,48px)}25.08%{transform:translate(544px,32px)}25.42%{transform:translate(528px,32px)}25.76%{transform:translate(528px,48px)}26.78%{transform:translate(480px,48px)}27.8%{transform:translate(480px,0)}28.14%{transform:translate(464px,0)}29.15%{transform:translate(464px,48px)}32.88%{transform:translate(640px,48px)}33.9%{transform:translate(640px,0)}35.93%{transform:translate(736px,0)}36.61%{transform:translate(736px,32px)}36.95%{transform:translate(752px,32px)}37.29%{transform:translate(752px,16px)}37.63%{transform:translate(768px,16px)}37.97%{transform:translate(768px,0)}38.31%,47.12%{transform:translate(784px,0)}38.64%{transform:translate(784px,-16px)}39.66%{transform:translate(832px,-16px)}40%{transform:translate(832px,0)}40.34%{transform:translate(816px,0)}41.36%{transform:translate(816px,48px)}41.69%{transform:translate(800px,48px)}42.03%{transform:translate(800px,64px)}42.37%{transform:translate(816px,64px)}43.05%{transform:translate(816px,96px)}44.07%{transform:translate(768px,96px)}44.41%{transform:translate(768px,80px)}45.08%{transform:translate(800px,80px)}46.78%{transform:translate(800px,0)}47.46%,82.71%{transform:translate(784px,16px)}52.54%{transform:translate(544px,16px)}52.88%{transform:translate(544px,0)}64.41%{transform:translate(48px,48px)}64.75%,66.78%{transform:translate(64px,48px)}65.08%{transform:translate(64px,64px)}65.42%{transform:translate(80px,64px)}66.1%{transform:translate(80px,32px)}66.44%{transform:translate(64px,32px)}81.69%{transform:translate(768px,48px)}82.03%{transform:translate(768px,32px)}82.37%{transform:translate(784px,32px)}98.98%{transform:translate(48px,-16px)}}@keyframes s2{0%,99.66%{transform:translate(32px,-16px)}.68%{transform:translate(0,-16px)}1.02%{transform:translate(0,0)}2.03%,63.73%{transform:translate(48px,0)}2.37%,98.64%{transform:translate(48px,16px)}8.81%{transform:translate(352px,16px)}10.17%{transform:translate(352px,80px)}12.54%{transform:translate(464px,80px)}12.88%{transform:translate(464px,64px)}13.56%{transform:translate(496px,64px)}14.58%{transform:translate(496px,16px)}15.25%{transform:translate(528px,16px)}15.59%{transform:translate(528px,0)}16.95%{transform:translate(592px,0)}17.97%{transform:translate(592px,48px)}18.64%{transform:translate(624px,48px)}18.98%{transform:translate(624px,64px)}20%{transform:translate(672px,64px)}20.34%{transform:translate(672px,80px)}21.69%{transform:translate(608px,80px)}22.03%{transform:translate(608px,96px)}23.39%{transform:translate(544px,96px)}24.07%{transform:translate(544px,64px)}24.41%{transform:translate(560px,64px)}24.75%{transform:translate(560px,48px)}25.08%{transform:translate(544px,48px)}25.42%{transform:translate(544px,32px)}25.76%{transform:translate(528px,32px)}26.1%{transform:translate(528px,48px)}27.12%{transform:translate(480px,48px)}28.14%{transform:translate(480px,0)}28.47%{transform:translate(464px,0)}29.49%{transform:translate(464px,48px)}33.22%{transform:translate(640px,48px)}34.24%{transform:translate(640px,0)}36.27%{transform:translate(736px,0)}36.95%{transform:translate(736px,32px)}37.29%{transform:translate(752px,32px)}37.63%{transform:translate(752px,16px)}37.97%{transform:translate(768px,16px)}38.31%{transform:translate(768px,0)}38.64%,47.46%{transform:translate(784px,0)}38.98%{transform:translate(784px,-16px)}40%{transform:translate(832px,-16px)}40.34%{transform:translate(832px,0)}40.68%{transform:translate(816px,0)}41.69%{transform:translate(816px,48px)}42.03%{transform:translate(800px,48px)}42.37%{transform:translate(800px,64px)}42.71%{transform:translate(816px,64px)}43.39%{transform:translate(816px,96px)}44.41%{transform:translate(768px,96px)}44.75%{transform:translate(768px,80px)}45.42%{transform:translate(800px,80px)}47.12%{transform:translate(800px,0)}47.8%,83.05%{transform:translate(784px,16px)}52.88%{transform:translate(544px,16px)}53.22%{transform:translate(544px,0)}64.75%{transform:translate(48px,48px)}65.08%,67.12%{transform:translate(64px,48px)}65.42%{transform:translate(64px,64px)}65.76%{transform:translate(80px,64px)}66.44%{transform:translate(80px,32px)}66.78%{transform:translate(64px,32px)}82.03%{transform:translate(768px,48px)}82.37%{transform:translate(768px,32px)}82.71%{transform:translate(784px,32px)}99.32%{transform:translate(48px,-16px)}}@keyframes s3{0%,99.66%{transform:translate(48px,-16px)}1.02%{transform:translate(0,-16px)}1.36%{transform:translate(0,0)}2.37%,64.07%{transform:translate(48px,0)}2.71%,98.98%{transform:translate(48px,16px)}9.15%{transform:translate(352px,16px)}10.51%{transform:translate(352px,80px)}12.88%{transform:translate(464px,80px)}13.22%{transform:translate(464px,64px)}13.9%{transform:translate(496px,64px)}14.92%{transform:translate(496px,16px)}15.59%{transform:translate(528px,16px)}15.93%{transform:translate(528px,0)}17.29%{transform:translate(592px,0)}18.31%{transform:translate(592px,48px)}18.98%{transform:translate(624px,48px)}19.32%{transform:translate(624px,64px)}20.34%{transform:translate(672px,64px)}20.68%{transform:translate(672px,80px)}22.03%{transform:translate(608px,80px)}22.37%{transform:translate(608px,96px)}23.73%{transform:translate(544px,96px)}24.41%{transform:translate(544px,64px)}24.75%{transform:translate(560px,64px)}25.08%{transform:translate(560px,48px)}25.42%{transform:translate(544px,48px)}25.76%{transform:translate(544px,32px)}26.1%{transform:translate(528px,32px)}26.44%{transform:translate(528px,48px)}27.46%{transform:translate(480px,48px)}28.47%{transform:translate(480px,0)}28.81%{transform:translate(464px,0)}29.83%{transform:translate(464px,48px)}33.56%{transform:translate(640px,48px)}34.58%{transform:translate(640px,0)}36.61%{transform:translate(736px,0)}37.29%{transform:translate(736px,32px)}37.63%{transform:translate(752px,32px)}37.97%{transform:translate(752px,16px)}38.31%{transform:translate(768px,16px)}38.64%{transform:translate(768px,0)}38.98%,47.8%{transform:translate(784px,0)}39.32%{transform:translate(784px,-16px)}40.34%{transform:translate(832px,-16px)}40.68%{transform:translate(832px,0)}41.02%{transform:translate(816px,0)}42.03%{transform:translate(816px,48px)}42.37%{transform:translate(800px,48px)}42.71%{transform:translate(800px,64px)}43.05%{transform:translate(816px,64px)}43.73%{transform:translate(816px,96px)}44.75%{transform:translate(768px,96px)}45.08%{transform:translate(768px,80px)}45.76%{transform:translate(800px,80px)}47.46%{transform:translate(800px,0)}48.14%,83.39%{transform:translate(784px,16px)}53.22%{transform:translate(544px,16px)}53.56%{transform:translate(544px,0)}65.08%{transform:translate(48px,48px)}65.42%,67.46%{transform:translate(64px,48px)}65.76%{transform:translate(64px,64px)}66.1%{transform:translate(80px,64px)}66.78%{transform:translate(80px,32px)}67.12%{transform:translate(64px,32px)}82.37%{transform:translate(768px,48px)}82.71%{transform:translate(768px,32px)}83.05%{transform:translate(784px,32px)}}:root{--cb:#1b1f230a;--cs:purple;--ce:#ebedf0;--c0:#ebedf0;--c1:#9be9a8;--c2:#40c463;--c3:#30a14e;--c4:#216e39}.c{shape-rendering:geometricPrecision;fill:var(--ce);stroke-width:1px;stroke:var(--cb);animation:none 29500ms linear infinite}.c.c0{fill:var(--c2);animation-name:c0}.c.c1{fill:var(--c1);animation-name:c1}.c.c2{fill:var(--c4);animation-name:c2}.c.c3{fill:var(--c2);animation-name:c3}.c.c4,.c.c5,.c.c6{fill:var(--c1);animation-name:c4}.c.c5,.c.c6{animation-name:c5}.c.c6{animation-name:c6}.c.c7,.c.c8,.c.c9{fill:var(--c1);animation-name:c7}.c.c8,.c.c9{animation-name:c8}.c.c9{animation-name:c9}.c.ca,.c.cb,.c.cc{fill:var(--c1);animation-name:ca}.c.cb,.c.cc{animation-name:cb}.c.cc{animation-name:cc}.c.cd,.c.ce,.c.cf{fill:var(--c1);animation-name:cd}.c.ce,.c.cf{animation-name:ce}.c.cf{animation-name:cf}.c.cg,.c.ch,.c.ci{fill:var(--c1);animation-name:cg}.c.ch,.c.ci{animation-name:ch}.c.ci{animation-name:ci}.c.cj{fill:var(--c2);animation-name:cj}.c.ck,.c.cl{fill:var(--c1);animation-name:ck}.c.cl{animation-name:cl}.c.cm,.c.cn,.c.co{fill:var(--c1);animation-name:cm}.c.cn,.c.co{animation-name:cn}.c.co{animation-name:co}.c.cp,.c.cq,.c.cr{fill:var(--c1);animation-name:cp}.c.cq,.c.cr{animation-name:cq}.c.cr{animation-name:cr}.c.cs,.c.ct,.c.cu{fill:var(--c1);animation-name:cs}.c.ct,.c.cu{animation-name:ct}.c.cu{animation-name:cu}.c.cv,.c.cw,.c.cx{fill:var(--c1);animation-name:cv}.c.cw,.c.cx{animation-name:cw}.c.cx{animation-name:cx}.c.c10,.c.cy,.c.cz{fill:var(--c1);animation-name:cy}.c.c10,.c.cz{animation-name:cz}.c.c10{animation-name:c10}.c.c11,.c.c12{fill:var(--c4);animation-name:c11}.c.c12{animation-name:c12}.c.c13,.c.c14{fill:var(--c2);animation-name:c13}.c.c14{animation-name:c14}.c.c15{fill:var(--c1);animation-name:c15}.c.c16{fill:var(--c2);animation-name:c16}.c.c17{fill:var(--c4);animation-name:c17}.c.c18{fill:var(--c2);animation-name:c18}.c.c19,.c.c1a{fill:var(--c1);animation-name:c19}.c.c1a{animation-name:c1a}.c.c1b,.c.c1c,.c.c1d{fill:var(--c1);animation-name:c1b}.c.c1c,.c.c1d{animation-name:c1c}.c.c1d{animation-name:c1d}.c.c1e,.c.c1f,.c.c1g{fill:var(--c1);animation-name:c1e}.c.c1f,.c.c1g{animation-name:c1f}.c.c1g{animation-name:c1g}.s,.u{animation:none linear 29500ms infinite}.u,.u.u0{transform-origin:0 0}.u{transform:scale(0,1)}.u.u0{fill:var(--c1);animation-name:u0}.u.u1{fill:var(--c2);animation-name:u1;transform-origin:672px 0}.u.u2{fill:var(--c4);animation-name:u2;transform-origin:784px 0}.s{shape-rendering:geometricPrecision;fill:var(--cs)}.s.s0{transform:translate(0,-16px);animation-name:s0}.s.s1{transform:translate(16px,-16px);animation-name:s1}.s.s2{transform:translate(32px,-16px);animation-name:s2}.s.s3{transform:translate(48px,-16px);animation-name:s3}</style><rect class="c" x="2" y="2" rx="2" ry="2" width="12" height="12"/><rect class="c" x="2" y="18" rx="2" ry="2" width="12" height="12"/><rect class="c" x="2" y="34" rx="2" ry="2" width="12" height="12"/><rect class="c" x="2" y="50" rx="2" ry="2" width="12" height="12"/><rect class="c" x="2" y="66" rx="2" ry="2" width="12" height="12"/><rect class="c" x="2" y="82" rx="2" ry="2" width="12" height="12"/><rect class="c" x="2" y="98" rx="2" ry="2" width="12" height="12"/><rect class="c" x="18" y="2" rx="2" ry="2" width="12" height="12"/><rect class="c" x="18" y="18" rx="2" ry="2" width="12" height="12"/><rect class="c" x="18" y="34" rx="2" ry="2" width="12" height="12"/><rect class="c" x="18" y="50" rx="2" ry="2" width="12" height="12"/><rect class="c" x="18" y="66" rx="2" ry="2" width="12" height="12"/><rect class="c" x="18" y="82" rx="2" ry="2" width="12" height="12"/><rect class="c" x="18" y="98" rx="2" ry="2" width="12" height="12"/><rect class="c" x="34" y="2" rx="2" ry="2" width="12" height="12"/><rect class="c" x="34" y="18" rx="2" ry="2" width="12" height="12"/><rect class="c" x="34" y="34" rx="2" ry="2" width="12" height="12"/><rect class="c" x="34" y="50" rx="2" ry="2" width="12" height="12"/><rect class="c" x="34" y="66" rx="2" ry="2" width="12" height="12"/><rect class="c" x="34" y="82" rx="2" ry="2" width="12" height="12"/><rect class="c" x="34" y="98" rx="2" ry="2" width="12" height="12"/><rect class="c" x="50" y="2" rx="2" ry="2" width="12" height="12"/><rect class="c" x="50" y="18" rx="2" ry="2" width="12" height="12"/><rect class="c" x="50" y="34" rx="2" ry="2" width="12" height="12"/><rect class="c" x="50" y="50" rx="2" ry="2" width="12" height="12"/><rect class="c" x="50" y="66" rx="2" ry="2" width="12" height="12"/><rect class="c" x="50" y="82" rx="2" ry="2" width="12" height="12"/><rect class="c" x="50" y="98" rx="2" ry="2" width="12" height="12"/><rect class="c c0" x="66" y="2" rx="2" ry="2" width="12" height="12"/><rect class="c c1" x="66" y="18" rx="2" ry="2" width="12" height="12"/><rect class="c c2" x="66" y="34" rx="2" ry="2" width="12" height="12"/><rect class="c" x="66" y="50" rx="2" ry="2" width="12" height="12"/><rect class="c c3" x="66" y="66" rx="2" ry="2" width="12" height="12"/><rect class="c" x="66" y="82" rx="2" ry="2" width="12" height="12"/><rect class="c" x="66" y="98" rx="2" ry="2" width="12" height="12"/><rect class="c" x="82" y="2" rx="2" ry="2" width="12" height="12"/><rect class="c" x="82" y="18" rx="2" ry="2" width="12" height="12"/><rect class="c" x="82" y="34" rx="2" ry="2" width="12" height="12"/><rect class="c" x="82" y="50" rx="2" ry="2" width="12" height="12"/><rect class="c" x="82" y="66" rx="2" ry="2" width="12" height="12"/><rect class="c" x="82" y="82" rx="2" ry="2" width="12" height="12"/><rect class="c" x="82" y="98" rx="2" ry="2" width="12" height="12"/><rect class="c" x="98" y="2" rx="2" ry="2" width="12" height="12"/><rect class="c" x="98" y="18" rx="2" ry="2" width="12" height="12"/><rect class="c" x="98" y="34" rx="2" ry="2" width="12" height="12"/><rect class="c" x="98" y="50" rx="2" ry="2" width="12" height="12"/><rect class="c" x="98" y="66" rx="2" ry="2" width="12" height="12"/><rect class="c" x="98" y="82" rx="2" ry="2" width="12" height="12"/><rect class="c" x="98" y="98" rx="2" ry="2" width="12" height="12"/><rect class="c" x="114" y="2" rx="2" ry="2" width="12" height="12"/><rect class="c" x="114" y="18" rx="2" ry="2" width="12" height="12"/><rect class="c" x="114" y="34" rx="2" ry="2" width="12" height="12"/><rect class="c" x="114" y="50" rx="2" ry="2" width="12" height="12"/><rect class="c" x="114" y="66" rx="2" ry="2" width="12" height="12"/><rect class="c" x="114" y="82" rx="2" ry="2" width="12" height="12"/><rect class="c" x="114" y="98" rx="2" ry="2" width="12" height="12"/><rect class="c" x="130" y="2" rx="2" ry="2" width="12" height="12"/><rect class="c" x="130" y="18" rx="2" ry="2" width="12" height="12"/><rect class="c" x="130" y="34" rx="2" ry="2" width="12" height="12"/><rect class="c" x="130" y="50" rx="2" ry="2" width="12" height="12"/><rect class="c" x="130" y="66" rx="2" ry="2" width="12" height="12"/><rect class="c" x="130" y="82" rx="2" ry="2" width="12" height="12"/><rect class="c" x="130" y="98" rx="2" ry="2" width="12" height="12"/><rect class="c" x="146" y="2" rx="2" ry="2" width="12" height="12"/><rect class="c" x="146" y="18" rx="2" ry="2" width="12" height="12"/><rect class="c" x="146" y="34" rx="2" ry="2" width="12" height="12"/><rect class="c" x="146" y="50" rx="2" ry="2" width="12" height="12"/><rect class="c" x="146" y="66" rx="2" ry="2" width="12" height="12"/><rect class="c" x="146" y="82" rx="2" ry="2" width="12" height="12"/><rect class="c" x="146" y="98" rx="2" ry="2" width="12" height="12"/><rect class="c" x="162" y="2" rx="2" ry="2" width="12" height="12"/><rect class="c" x="162" y="18" rx="2" ry="2" width="12" height="12"/><rect class="c" x="162" y="34" rx="2" ry="2" width="12" height="12"/><rect class="c" x="162" y="50" rx="2" ry="2" width="12" height="12"/><rect class="c" x="162" y="66" rx="2" ry="2" width="12" height="12"/><rect class="c" x="162" y="82" rx="2" ry="2" width="12" height="12"/><rect class="c" x="162" y="98" rx="2" ry="2" width="12" height="12"/><rect class="c" x="178" y="2" rx="2" ry="2" width="12" height="12"/><rect class="c" x="178" y="18" rx="2" ry="2" width="12" height="12"/><rect class="c" x="178" y="34" rx="2" ry="2" width="12" height="12"/><rect class="c" x="178" y="50" rx="2" ry="2" width="12" height="12"/><rect class="c" x="178" y="66" rx="2" ry="2" width="12" height="12"/><rect class="c" x="178" y="82" rx="2" ry="2" width="12" height="12"/><rect class="c" x="178" y="98" rx="2" ry="2" width="12" height="12"/><rect class="c" x="194" y="2" rx="2" ry="2" width="12" height="12"/><rect class="c" x="194" y="18" rx="2" ry="2" width="12" height="12"/><rect class="c" x="194" y="34" rx="2" ry="2" width="12" height="12"/><rect class="c" x="194" y="50" rx="2" ry="2" width="12" height="12"/><rect class="c" x="194" y="66" rx="2" ry="2" width="12" height="12"/><rect class="c" x="194" y="82" rx="2" ry="2" width="12" height="12"/><rect class="c" x="194" y="98" rx="2" ry="2" width="12" height="12"/><rect class="c" x="210" y="2" rx="2" ry="2" width="12" height="12"/><rect class="c" x="210" y="18" rx="2" ry="2" width="12" height="12"/><rect class="c" x="210" y="34" rx="2" ry="2" width="12" height="12"/><rect class="c" x="210" y="50" rx="2" ry="2" width="12" height="12"/><rect class="c" x="210" y="66" rx="2" ry="2" width="12" height="12"/><rect class="c" x="210" y="82" rx="2" ry="2" width="12" height="12"/><rect class="c" x="210" y="98" rx="2" ry="2" width="12" height="12"/><rect class="c" x="226" y="2" rx="2" ry="2" width="12" height="12"/><rect class="c" x="226" y="18" rx="2" ry="2" width="12" height="12"/><rect class="c" x="226" y="34" rx="2" ry="2" width="12" height="12"/><rect class="c" x="226" y="50" rx="2" ry="2" width="12" height="12"/><rect class="c" x="226" y="66" rx="2" ry="2" width="12" height="12"/><rect class="c" x="226" y="82" rx="2" ry="2" width="12" height="12"/><rect class="c" x="226" y="98" rx="2" ry="2" width="12" height="12"/><rect class="c" x="242" y="2" rx="2" ry="2" width="12" height="12"/><rect class="c" x="242" y="18" rx="2" ry="2" width="12" height="12"/><rect class="c" x="242" y="34" rx="2" ry="2" width="12" height="12"/><rect class="c" x="242" y="50" rx="2" ry="2" width="12" height="12"/><rect class="c" x="242" y="66" rx="2" ry="2" width="12" height="12"/><rect class="c" x="242" y="82" rx="2" ry="2" width="12" height="12"/><rect class="c" x="242" y="98" rx="2" ry="2" width="12" height="12"/><rect class="c" x="258" y="2" rx="2" ry="2" width="12" height="12"/><rect class="c" x="258" y="18" rx="2" ry="2" width="12" height="12"/><rect class="c" x="258" y="34" rx="2" ry="2" width="12" height="12"/><rect class="c" x="258" y="50" rx="2" ry="2" width="12" height="12"/><rect class="c" x="258" y="66" rx="2" ry="2" width="12" height="12"/><rect class="c" x="258" y="82" rx="2" ry="2" width="12" height="12"/><rect class="c" x="258" y="98" rx="2" ry="2" width="12" height="12"/><rect class="c" x="274" y="2" rx="2" ry="2" width="12" height="12"/><rect class="c" x="274" y="18" rx="2" ry="2" width="12" height="12"/><rect class="c" x="274" y="34" rx="2" ry="2" width="12" height="12"/><rect class="c" x="274" y="50" rx="2" ry="2" width="12" height="12"/><rect class="c" x="274" y="66" rx="2" ry="2" width="12" height="12"/><rect class="c" x="274" y="82" rx="2" ry="2" width="12" height="12"/><rect class="c" x="274" y="98" rx="2" ry="2" width="12" height="12"/><rect class="c" x="290" y="2" rx="2" ry="2" width="12" height="12"/><rect class="c" x="290" y="18" rx="2" ry="2" width="12" height="12"/><rect class="c" x="290" y="34" rx="2" ry="2" width="12" height="12"/><rect class="c" x="290" y="50" rx="2" ry="2" width="12" height="12"/><rect class="c" x="290" y="66" rx="2" ry="2" width="12" height="12"/><rect class="c" x="290" y="82" rx="2" ry="2" width="12" height="12"/><rect class="c" x="290" y="98" rx="2" ry="2" width="12" height="12"/><rect class="c" x="306" y="2" rx="2" ry="2" width="12" height="12"/><rect class="c" x="306" y="18" rx="2" ry="2" width="12" height="12"/><rect class="c" x="306" y="34" rx="2" ry="2" width="12" height="12"/><rect class="c" x="306" y="50" rx="2" ry="2" width="12" height="12"/><rect class="c" x="306" y="66" rx="2" ry="2" width="12" height="12"/><rect class="c" x="306" y="82" rx="2" ry="2" width="12" height="12"/><rect class="c" x="306" y="98" rx="2" ry="2" width="12" height="12"/><rect class="c" x="322" y="2" rx="2" ry="2" width="12" height="12"/><rect class="c" x="322" y="18" rx="2" ry="2" width="12" height="12"/><rect class="c" x="322" y="34" rx="2" ry="2" width="12" height="12"/><rect class="c" x="322" y="50" rx="2" ry="2" width="12" height="12"/><rect class="c" x="322" y="66" rx="2" ry="2" width="12" height="12"/><rect class="c" x="322" y="82" rx="2" ry="2" width="12" height="12"/><rect class="c" x="322" y="98" rx="2" ry="2" width="12" height="12"/><rect class="c" x="338" y="2" rx="2" ry="2" width="12" height="12"/><rect class="c" x="338" y="18" rx="2" ry="2" width="12" height="12"/><rect class="c" x="338" y="34" rx="2" ry="2" width="12" height="12"/><rect class="c" x="338" y="50" rx="2" ry="2" width="12" height="12"/><rect class="c" x="338" y="66" rx="2" ry="2" width="12" height="12"/><rect class="c" x="338" y="82" rx="2" ry="2" width="12" height="12"/><rect class="c" x="338" y="98" rx="2" ry="2" width="12" height="12"/><rect class="c" x="354" y="2" rx="2" ry="2" width="12" height="12"/><rect class="c" x="354" y="18" rx="2" ry="2" width="12" height="12"/><rect class="c" x="354" y="34" rx="2" ry="2" width="12" height="12"/><rect class="c" x="354" y="50" rx="2" ry="2" width="12" height="12"/><rect class="c" x="354" y="66" rx="2" ry="2" width="12" height="12"/><rect class="c c4" x="354" y="82" rx="2" ry="2" width="12" height="12"/><rect class="c" x="354" y="98" rx="2" ry="2" width="12" height="12"/><rect class="c" x="370" y="2" rx="2" ry="2" width="12" height="12"/><rect class="c" x="370" y="18" rx="2" ry="2" width="12" height="12"/><rect class="c" x="370" y="34" rx="2" ry="2" width="12" height="12"/><rect class="c" x="370" y="50" rx="2" ry="2" width="12" height="12"/><rect class="c" x="370" y="66" rx="2" ry="2" width="12" height="12"/><rect class="c" x="370" y="82" rx="2" ry="2" width="12" height="12"/><rect class="c" x="370" y="98" rx="2" ry="2" width="12" height="12"/><rect class="c" x="386" y="2" rx="2" ry="2" width="12" height="12"/><rect class="c" x="386" y="18" rx="2" ry="2" width="12" height="12"/><rect class="c" x="386" y="34" rx="2" ry="2" width="12" height="12"/><rect class="c" x="386" y="50" rx="2" ry="2" width="12" height="12"/><rect class="c" x="386" y="66" rx="2" ry="2" width="12" height="12"/><rect class="c" x="386" y="82" rx="2" ry="2" width="12" height="12"/><rect class="c" x="386" y="98" rx="2" ry="2" width="12" height="12"/><rect class="c" x="402" y="2" rx="2" ry="2" width="12" height="12"/><rect class="c" x="402" y="18" rx="2" ry="2" width="12" height="12"/><rect class="c" x="402" y="34" rx="2" ry="2" width="12" height="12"/><rect class="c" x="402" y="50" rx="2" ry="2" width="12" height="12"/><rect class="c" x="402" y="66" rx="2" ry="2" width="12" height="12"/><rect class="c" x="402" y="82" rx="2" ry="2" width="12" height="12"/><rect class="c" x="402" y="98" rx="2" ry="2" width="12" height="12"/><rect class="c" x="418" y="2" rx="2" ry="2" width="12" height="12"/><rect class="c" x="418" y="18" rx="2" ry="2" width="12" height="12"/><rect class="c" x="418" y="34" rx="2" ry="2" width="12" height="12"/><rect class="c" x="418" y="50" rx="2" ry="2" width="12" height="12"/><rect class="c" x="418" y="66" rx="2" ry="2" width="12" height="12"/><rect class="c" x="418" y="82" rx="2" ry="2" width="12" height="12"/><rect class="c" x="418" y="98" rx="2" ry="2" width="12" height="12"/><rect class="c" x="434" y="2" rx="2" ry="2" width="12" height="12"/><rect class="c" x="434" y="18" rx="2" ry="2" width="12" height="12"/><rect class="c" x="434" y="34" rx="2" ry="2" width="12" height="12"/><rect class="c" x="434" y="50" rx="2" ry="2" width="12" height="12"/><rect class="c" x="434" y="66" rx="2" ry="2" width="12" height="12"/><rect class="c" x="434" y="82" rx="2" ry="2" width="12" height="12"/><rect class="c" x="434" y="98" rx="2" ry="2" width="12" height="12"/><rect class="c" x="450" y="2" rx="2" ry="2" width="12" height="12"/><rect class="c" x="450" y="18" rx="2" ry="2" width="12" height="12"/><rect class="c" x="450" y="34" rx="2" ry="2" width="12" height="12"/><rect class="c" x="450" y="50" rx="2" ry="2" width="12" height="12"/><rect class="c" x="450" y="66" rx="2" ry="2" width="12" height="12"/><rect class="c" x="450" y="82" rx="2" ry="2" width="12" height="12"/><rect class="c" x="450" y="98" rx="2" ry="2" width="12" height="12"/><rect class="c" x="466" y="2" rx="2" ry="2" width="12" height="12"/><rect class="c" x="466" y="18" rx="2" ry="2" width="12" height="12"/><rect class="c" x="466" y="34" rx="2" ry="2" width="12" height="12"/><rect class="c c5" x="466" y="50" rx="2" ry="2" width="12" height="12"/><rect class="c c6" x="466" y="66" rx="2" ry="2" width="12" height="12"/><rect class="c c7" x="466" y="82" rx="2" ry="2" width="12" height="12"/><rect class="c" x="466" y="98" rx="2" ry="2" width="12" height="12"/><rect class="c c8" x="482" y="2" rx="2" ry="2" width="12" height="12"/><rect class="c" x="482" y="18" rx="2" ry="2" width="12" height="12"/><rect class="c c9" x="482" y="34" rx="2" ry="2" width="12" height="12"/><rect class="c ca" x="482" y="50" rx="2" ry="2" width="12" height="12"/><rect class="c cb" x="482" y="66" rx="2" ry="2" width="12" height="12"/><rect class="c" x="482" y="82" rx="2" ry="2" width="12" height="12"/><rect class="c" x="482" y="98" rx="2" ry="2" width="12" height="12"/><rect class="c" x="498" y="2" rx="2" ry="2" width="12" height="12"/><rect class="c cc" x="498" y="18" rx="2" ry="2" width="12" height="12"/><rect class="c cd" x="498" y="34" rx="2" ry="2" width="12" height="12"/><rect class="c ce" x="498" y="50" rx="2" ry="2" width="12" height="12"/><rect class="c cf" x="498" y="66" rx="2" ry="2" width="12" height="12"/><rect class="c" x="498" y="82" rx="2" ry="2" width="12" height="12"/><rect class="c" x="498" y="98" rx="2" ry="2" width="12" height="12"/><rect class="c" x="514" y="2" rx="2" ry="2" width="12" height="12"/><rect class="c" x="514" y="18" rx="2" ry="2" width="12" height="12"/><rect class="c" x="514" y="34" rx="2" ry="2" width="12" height="12"/><rect class="c" x="514" y="50" rx="2" ry="2" width="12" height="12"/><rect class="c" x="514" y="66" rx="2" ry="2" width="12" height="12"/><rect class="c" x="514" y="82" rx="2" ry="2" width="12" height="12"/><rect class="c" x="514" y="98" rx="2" ry="2" width="12" height="12"/><rect class="c" x="530" y="2" rx="2" ry="2" width="12" height="12"/><rect class="c cg" x="530" y="18" rx="2" ry="2" width="12" height="12"/><rect class="c" x="530" y="34" rx="2" ry="2" width="12" height="12"/><rect class="c ch" x="530" y="50" rx="2" ry="2" width="12" height="12"/><rect class="c" x="530" y="66" rx="2" ry="2" width="12" height="12"/><rect class="c" x="530" y="82" rx="2" ry="2" width="12" height="12"/><rect class="c" x="530" y="98" rx="2" ry="2" width="12" height="12"/><rect class="c ci" x="546" y="2" rx="2" ry="2" width="12" height="12"/><rect class="c cj" x="546" y="18" rx="2" ry="2" width="12" height="12"/><rect class="c ck" x="546" y="34" rx="2" ry="2" width="12" height="12"/><rect class="c cl" x="546" y="50" rx="2" ry="2" width="12" height="12"/><rect class="c cm" x="546" y="66" rx="2" ry="2" width="12" height="12"/><rect class="c" x="546" y="82" rx="2" ry="2" width="12" height="12"/><rect class="c cn" x="546" y="98" rx="2" ry="2" width="12" height="12"/><rect class="c" x="562" y="2" rx="2" ry="2" width="12" height="12"/><rect class="c" x="562" y="18" rx="2" ry="2" width="12" height="12"/><rect class="c" x="562" y="34" rx="2" ry="2" width="12" height="12"/><rect class="c" x="562" y="50" rx="2" ry="2" width="12" height="12"/><rect class="c co" x="562" y="66" rx="2" ry="2" width="12" height="12"/><rect class="c" x="562" y="82" rx="2" ry="2" width="12" height="12"/><rect class="c" x="562" y="98" rx="2" ry="2" width="12" height="12"/><rect class="c" x="578" y="2" rx="2" ry="2" width="12" height="12"/><rect class="c" x="578" y="18" rx="2" ry="2" width="12" height="12"/><rect class="c" x="578" y="34" rx="2" ry="2" width="12" height="12"/><rect class="c" x="578" y="50" rx="2" ry="2" width="12" height="12"/><rect class="c" x="578" y="66" rx="2" ry="2" width="12" height="12"/><rect class="c" x="578" y="82" rx="2" ry="2" width="12" height="12"/><rect class="c" x="578" y="98" rx="2" ry="2" width="12" height="12"/><rect class="c" x="594" y="2" rx="2" ry="2" width="12" height="12"/><rect class="c cp" x="594" y="18" rx="2" ry="2" width="12" height="12"/><rect class="c cq" x="594" y="34" rx="2" ry="2" width="12" height="12"/><rect class="c cr" x="594" y="50" rx="2" ry="2" width="12" height="12"/><rect class="c" x="594" y="66" rx="2" ry="2" width="12" height="12"/><rect class="c" x="594" y="82" rx="2" ry="2" width="12" height="12"/><rect class="c" x="594" y="98" rx="2" ry="2" width="12" height="12"/><rect class="c" x="610" y="2" rx="2" ry="2" width="12" height="12"/><rect class="c" x="610" y="18" rx="2" ry="2" width="12" height="12"/><rect class="c" x="610" y="34" rx="2" ry="2" width="12" height="12"/><rect class="c" x="610" y="50" rx="2" ry="2" width="12" height="12"/><rect class="c" x="610" y="66" rx="2" ry="2" width="12" height="12"/><rect class="c" x="610" y="82" rx="2" ry="2" width="12" height="12"/><rect class="c cs" x="610" y="98" rx="2" ry="2" width="12" height="12"/><rect class="c" x="626" y="2" rx="2" ry="2" width="12" height="12"/><rect class="c" x="626" y="18" rx="2" ry="2" width="12" height="12"/><rect class="c" x="626" y="34" rx="2" ry="2" width="12" height="12"/><rect class="c" x="626" y="50" rx="2" ry="2" width="12" height="12"/><rect class="c ct" x="626" y="66" rx="2" ry="2" width="12" height="12"/><rect class="c cu" x="626" y="82" rx="2" ry="2" width="12" height="12"/><rect class="c" x="626" y="98" rx="2" ry="2" width="12" height="12"/><rect class="c cv" x="642" y="2" rx="2" ry="2" width="12" height="12"/><rect class="c" x="642" y="18" rx="2" ry="2" width="12" height="12"/><rect class="c" x="642" y="34" rx="2" ry="2" width="12" height="12"/><rect class="c" x="642" y="50" rx="2" ry="2" width="12" height="12"/><rect class="c cw" x="642" y="66" rx="2" ry="2" width="12" height="12"/><rect class="c cx" x="642" y="82" rx="2" ry="2" width="12" height="12"/><rect class="c" x="642" y="98" rx="2" ry="2" width="12" height="12"/><rect class="c" x="658" y="2" rx="2" ry="2" width="12" height="12"/><rect class="c" x="658" y="18" rx="2" ry="2" width="12" height="12"/><rect class="c" x="658" y="34" rx="2" ry="2" width="12" height="12"/><rect class="c" x="658" y="50" rx="2" ry="2" width="12" height="12"/><rect class="c cy" x="658" y="66" rx="2" ry="2" width="12" height="12"/><rect class="c" x="658" y="82" rx="2" ry="2" width="12" height="12"/><rect class="c" x="658" y="98" rx="2" ry="2" width="12" height="12"/><rect class="c" x="674" y="2" rx="2" ry="2" width="12" height="12"/><rect class="c" x="674" y="18" rx="2" ry="2" width="12" height="12"/><rect class="c" x="674" y="34" rx="2" ry="2" width="12" height="12"/><rect class="c" x="674" y="50" rx="2" ry="2" width="12" height="12"/><rect class="c cz" x="674" y="66" rx="2" ry="2" width="12" height="12"/><rect class="c" x="674" y="82" rx="2" ry="2" width="12" height="12"/><rect class="c" x="674" y="98" rx="2" ry="2" width="12" height="12"/><rect class="c" x="690" y="2" rx="2" ry="2" width="12" height="12"/><rect class="c" x="690" y="18" rx="2" ry="2" width="12" height="12"/><rect class="c" x="690" y="34" rx="2" ry="2" width="12" height="12"/><rect class="c" x="690" y="50" rx="2" ry="2" width="12" height="12"/><rect class="c" x="690" y="66" rx="2" ry="2" width="12" height="12"/><rect class="c" x="690" y="82" rx="2" ry="2" width="12" height="12"/><rect class="c" x="690" y="98" rx="2" ry="2" width="12" height="12"/><rect class="c" x="706" y="2" rx="2" ry="2" width="12" height="12"/><rect class="c" x="706" y="18" rx="2" ry="2" width="12" height="12"/><rect class="c" x="706" y="34" rx="2" ry="2" width="12" height="12"/><rect class="c" x="706" y="50" rx="2" ry="2" width="12" height="12"/><rect class="c" x="706" y="66" rx="2" ry="2" width="12" height="12"/><rect class="c" x="706" y="82" rx="2" ry="2" width="12" height="12"/><rect class="c" x="706" y="98" rx="2" ry="2" width="12" height="12"/><rect class="c" x="722" y="2" rx="2" ry="2" width="12" height="12"/><rect class="c" x="722" y="18" rx="2" ry="2" width="12" height="12"/><rect class="c" x="722" y="34" rx="2" ry="2" width="12" height="12"/><rect class="c" x="722" y="50" rx="2" ry="2" width="12" height="12"/><rect class="c" x="722" y="66" rx="2" ry="2" width="12" height="12"/><rect class="c" x="722" y="82" rx="2" ry="2" width="12" height="12"/><rect class="c" x="722" y="98" rx="2" ry="2" width="12" height="12"/><rect class="c" x="738" y="2" rx="2" ry="2" width="12" height="12"/><rect class="c" x="738" y="18" rx="2" ry="2" width="12" height="12"/><rect class="c c10" x="738" y="34" rx="2" ry="2" width="12" height="12"/><rect class="c" x="738" y="50" rx="2" ry="2" width="12" height="12"/><rect class="c" x="738" y="66" rx="2" ry="2" width="12" height="12"/><rect class="c" x="738" y="82" rx="2" ry="2" width="12" height="12"/><rect class="c" x="738" y="98" rx="2" ry="2" width="12" height="12"/><rect class="c" x="754" y="2" rx="2" ry="2" width="12" height="12"/><rect class="c" x="754" y="18" rx="2" ry="2" width="12" height="12"/><rect class="c" x="754" y="34" rx="2" ry="2" width="12" height="12"/><rect class="c" x="754" y="50" rx="2" ry="2" width="12" height="12"/><rect class="c" x="754" y="66" rx="2" ry="2" width="12" height="12"/><rect class="c" x="754" y="82" rx="2" ry="2" width="12" height="12"/><rect class="c" x="754" y="98" rx="2" ry="2" width="12" height="12"/><rect class="c" x="770" y="2" rx="2" ry="2" width="12" height="12"/><rect class="c" x="770" y="18" rx="2" ry="2" width="12" height="12"/><rect class="c c11" x="770" y="34" rx="2" ry="2" width="12" height="12"/><rect class="c c12" x="770" y="50" rx="2" ry="2" width="12" height="12"/><rect class="c" x="770" y="66" rx="2" ry="2" width="12" height="12"/><rect class="c c13" x="770" y="82" rx="2" ry="2" width="12" height="12"/><rect class="c c14" x="770" y="98" rx="2" ry="2" width="12" height="12"/><rect class="c c15" x="786" y="2" rx="2" ry="2" width="12" height="12"/><rect class="c c16" x="786" y="18" rx="2" ry="2" width="12" height="12"/><rect class="c c17" x="786" y="34" rx="2" ry="2" width="12" height="12"/><rect class="c" x="786" y="50" rx="2" ry="2" width="12" height="12"/><rect class="c" x="786" y="66" rx="2" ry="2" width="12" height="12"/><rect class="c" x="786" y="82" rx="2" ry="2" width="12" height="12"/><rect class="c" x="786" y="98" rx="2" ry="2" width="12" height="12"/><rect class="c c18" x="802" y="2" rx="2" ry="2" width="12" height="12"/><rect class="c" x="802" y="18" rx="2" ry="2" width="12" height="12"/><rect class="c" x="802" y="34" rx="2" ry="2" width="12" height="12"/><rect class="c c19" x="802" y="50" rx="2" ry="2" width="12" height="12"/><rect class="c c1a" x="802" y="66" rx="2" ry="2" width="12" height="12"/><rect class="c" x="802" y="82" rx="2" ry="2" width="12" height="12"/><rect class="c" x="802" y="98" rx="2" ry="2" width="12" height="12"/><rect class="c" x="818" y="2" rx="2" ry="2" width="12" height="12"/><rect class="c" x="818" y="18" rx="2" ry="2" width="12" height="12"/><rect class="c c1b" x="818" y="34" rx="2" ry="2" width="12" height="12"/><rect class="c c1c" x="818" y="50" rx="2" ry="2" width="12" height="12"/><rect class="c c1d" x="818" y="66" rx="2" ry="2" width="12" height="12"/><rect class="c c1e" x="818" y="82" rx="2" ry="2" width="12" height="12"/><rect class="c c1f" x="818" y="98" rx="2" ry="2" width="12" height="12"/><rect class="c c1g" x="834" y="2" rx="2" ry="2" width="12" height="12"/><rect class="u u0" height="12" width="672.6" x="0.0" y="144"/><rect class="u u1" height="12" width="112.6" x="672.0" y="144"/><rect class="u u2" height="12" width="64.6" x="784.0" y="144"/><rect class="s s0" x="0.8" y="0.8" width="14.4" height="14.4" rx="4.5" ry="4.5"/><rect class="s s1" x="1.8" y="1.8" width="12.3" height="12.3" rx="4.1" ry="4.1"/><rect class="s s2" x="2.6" y="2.6" width="10.8" height="10.8" rx="3.6" ry="3.6"/><rect class="s s3" x="3.0" y="3.0" width="9.9" height="9.9" rx="3.3" ry="3.3"/></svg>